<svg width="1728" height="845" viewBox="0 0 1728 845" fill="none" xmlns="http://www.w3.org/2000/svg">
<path d="M1728 0.513672H-3V844.514H1728V0.513672Z" fill="#6F52ED"/>
<path d="M486.988 675.047L493.715 682.289L500.441 675.047L507.169 682.289L513.894 675.047L520.619 682.289L527.349 675.047L534.078 682.289L540.805 675.047L547.537 682.289L554.269 675.047" stroke="white" stroke-width="2" stroke-miterlimit="10"/>
<path d="M486.988 685.663L493.715 692.905L500.441 685.663L507.168 692.905L513.893 685.663L520.618 692.905L527.349 685.663L534.078 692.905L540.805 685.663L547.537 692.905L554.269 685.663" stroke="white" stroke-width="2" stroke-miterlimit="10"/>
<path d="M1637.09 30.5229L1643.81 37.7649L1650.54 30.5229L1657.27 37.7649L1663.99 30.5229L1670.72 37.7649L1677.45 30.5229L1684.18 37.7649L1690.9 30.5229L1697.63 37.7649L1704.37 30.5229" stroke="white" stroke-width="2" stroke-miterlimit="10"/>
<path d="M1637.09 41.1392L1643.81 48.3812L1650.54 41.1392L1657.27 48.3812L1663.99 41.1392L1670.72 48.3812L1677.45 41.1392L1684.18 48.3812L1690.9 41.1392L1697.63 48.3812L1704.37 41.1392" stroke="white" stroke-width="2" stroke-miterlimit="10"/>
<path d="M15.6571 410.514H-45.5059V471.677H15.6571V410.514Z" stroke="white" stroke-width="1.3" stroke-miterlimit="10"/>
<path d="M-45.5039 471.678L-22.4169 494.765H39.3001V433.35L15.6601 410.514" stroke="white" stroke-width="1.3" stroke-miterlimit="10"/>
<path d="M15.6582 471.677L39.0222 495.041" stroke="white" stroke-width="1.3" stroke-miterlimit="10"/>
<path opacity="0.08" d="M75.7379 198.481C82.2855 191.933 82.2855 181.318 75.7379 174.77C69.1904 168.223 58.5748 168.223 52.0272 174.77C45.4797 181.318 45.4797 191.933 52.0272 198.481C58.5748 205.028 69.1904 205.028 75.7379 198.481Z" fill="#EFEFEF"/>
<path d="M266.579 124.402L260.251 130.73L266.689 137.167L260.653 143.203L254.216 136.765L247.888 143.093L242.146 137.35L248.473 131.023L242 124.549L248.035 118.514L254.508 124.986L260.836 118.659L266.579 124.402Z" fill="white"/>
<path d="M1711.6 352.54L1707.86 356.281L1711.67 360.087L1708.1 363.655L1704.29 359.849L1700.55 363.59L1697.16 360.195L1700.9 356.454L1697.07 352.627L1700.64 349.059L1704.46 352.887L1708.2 349.146L1711.6 352.54Z" fill="white"/>
<path opacity="0.06" d="M165.594 675.514H-3V700.266H165.594V675.514Z" fill="white"/>
</svg>
