<svg width="21" height="17" viewBox="0 0 21 17" fill="none" xmlns="http://www.w3.org/2000/svg">
<path d="M17.736 2.07871C16.4391 1.45407 15.0707 1.00825 13.6648 0.752376C13.652 0.750125 13.6389 0.752069 13.6273 0.757942C13.6157 0.763815 13.606 0.773328 13.5998 0.785174C13.4235 1.11315 13.2285 1.54214 13.0923 1.87799C11.5768 1.63661 10.0353 1.63661 8.51982 1.87799C8.36783 1.50386 8.1959 1.13901 8.00482 0.785174C7.99841 0.773458 7.98877 0.764055 7.97717 0.7582C7.96557 0.752346 7.95255 0.750316 7.93982 0.752376C6.53359 1.00689 5.16485 1.45293 3.86862 2.07871C3.85752 2.08315 3.84825 2.0915 3.84237 2.10233C1.24989 6.16792 0.538651 10.1338 0.887398 14.0498C0.888648 14.0682 0.899898 14.0866 0.913647 14.0984C2.42329 15.272 4.11185 16.1681 5.90734 16.7484C5.92002 16.7526 5.93364 16.7525 5.94623 16.748C5.95882 16.7435 5.96972 16.7349 5.97734 16.7235C6.36234 16.1725 6.70484 15.5913 6.99983 14.98C7.00598 14.9674 7.00809 14.953 7.00584 14.9391C7.00358 14.9251 6.99709 14.9123 6.98733 14.9026C6.98087 14.8962 6.97321 14.8913 6.96483 14.8881C6.42629 14.6709 5.90471 14.4099 5.40485 14.1076C5.39089 14.0993 5.38051 14.0856 5.37585 14.0695C5.3712 14.0534 5.37263 14.036 5.37985 14.021C5.3841 14.0112 5.39053 14.0027 5.3986 13.9961C5.5036 13.9134 5.6086 13.8268 5.7086 13.7402C5.71743 13.7328 5.72803 13.728 5.73926 13.7264C5.75049 13.7247 5.76193 13.7264 5.77235 13.731C9.04606 15.3001 12.5898 15.3001 15.8235 13.731C15.8343 13.7261 15.8462 13.7244 15.8578 13.726C15.8695 13.7276 15.8805 13.7325 15.8897 13.7402C15.9897 13.8268 16.0947 13.9134 16.1997 13.9961C16.2082 14.0026 16.2151 14.0112 16.2196 14.0212C16.2242 14.0312 16.2263 14.0422 16.2258 14.0532C16.2253 14.0643 16.2222 14.075 16.2168 14.0845C16.2114 14.094 16.2038 14.1019 16.1947 14.1076C15.696 14.4127 15.1738 14.6734 14.6335 14.8868C14.6249 14.8901 14.6171 14.8953 14.6106 14.9021C14.6041 14.9089 14.5991 14.9171 14.596 14.9262C14.5931 14.935 14.592 14.9442 14.5926 14.9535C14.5932 14.9627 14.5957 14.9718 14.5998 14.98C14.8998 15.59 15.2435 16.1725 15.621 16.7235C15.6286 16.7349 15.6395 16.7435 15.6521 16.748C15.6647 16.7525 15.6783 16.7526 15.691 16.7484C17.4895 16.1699 19.1808 15.2737 20.6922 14.0984C20.6998 14.0929 20.7061 14.0857 20.7106 14.0773C20.7151 14.0689 20.7178 14.0595 20.7184 14.0498C21.1359 9.52246 20.0197 5.58937 17.761 2.10364C17.7587 2.09788 17.7553 2.09269 17.751 2.08839C17.7467 2.0841 17.7416 2.0808 17.736 2.07871ZM7.48858 11.6648C6.50234 11.6648 5.6911 10.715 5.6911 9.55001C5.6911 8.38372 6.48734 7.4339 7.48858 7.4339C8.49732 7.4339 9.30106 8.3916 9.28606 9.55001C9.28606 10.715 8.48982 11.6648 7.48858 11.6648ZM14.1335 11.6648C13.1485 11.6648 12.336 10.715 12.336 9.55001C12.336 8.38372 13.1323 7.4339 14.1335 7.4339C15.1422 7.4339 15.9472 8.3916 15.931 9.55001C15.931 10.715 15.1422 11.6648 14.1335 11.6648Z" fill="#F8F8F8"/>
</svg>
