<svg width="126" height="144" viewBox="0 0 126 144" fill="none" xmlns="http://www.w3.org/2000/svg">
<path d="M95.6629 119.633C104.917 113.741 112.524 105.599 117.77 95.9693C123.017 86.3392 125.733 75.5362 125.662 64.5717C125.662 18.2664 97.7247 0.0842285 63.2407 0.0842285C54.8931 0.184403 46.6481 1.93631 38.982 5.23874C31.3158 8.54118 24.3805 13.3287 18.5765 19.3248C12.7725 25.3208 8.21494 32.4066 5.16705 40.1727C2.11916 47.9389 0.641354 56.2315 0.818998 64.5717C0.818998 100.215 19.3239 128.853 63.2407 128.853C68.0853 128.865 72.9138 128.295 77.6219 127.153C81.5053 134.189 87.7206 139.653 95.199 142.606C101.278 144.521 107.819 144.376 113.807 142.194L111.797 130.656C108.293 130.729 104.854 129.706 101.961 127.729C99.0682 125.753 96.8661 122.922 95.6629 119.633ZM30.767 64.6747C30.767 31.8644 45.3028 16.6181 63.2407 16.6181C81.1786 16.6181 95.7144 27.8983 95.7144 64.6747C95.7144 79.7664 93.3949 93.2099 86.7455 102.018C76.1271 85.4322 54.3749 91.4071 54.3749 91.4071L55.7151 102.018C59.0279 101.991 62.2809 102.9 65.099 104.641C67.917 106.381 70.1854 108.883 71.6426 111.856C68.8888 112.497 66.0683 112.809 63.2407 112.783C35.6123 112.783 30.767 91.2526 30.767 64.6747Z" fill="#E34F72"/>
</svg>
