<svg width="177" height="144" viewBox="0 0 177 144" fill="none" xmlns="http://www.w3.org/2000/svg">
<path d="M173.531 82.0882C172.957 81.6087 172.266 81.2472 171.502 81.0701L171.472 81.0627C167.062 85.5189 161.548 90.189 156.77 93.332C154.491 94.7928 151.624 95.5232 149.786 95.5232C145.449 95.5232 143.611 91.5097 143.097 85.0098C142.288 75.5146 141.832 64.4701 141.832 53.3075C141.832 52.1049 141.84 50.9098 141.847 49.7146C141.847 33.2252 138.017 21.9815 128.027 21.1109L126.704 21.0371C120.602 21.0371 117.588 24.1801 113.692 32.1407C110.311 39.0094 105.091 48.9399 95.4612 67.9229C87.6616 83.2318 79.2372 96.4011 69.7321 108.678C67.4532 111.452 65.6889 113.348 63.9982 114.514C63.094 115.133 61.9766 115.517 60.771 115.539H60.7784C57.6173 115.539 55.265 112.913 54.5299 106.701C54.3387 105.254 54.2358 103.572 54.2358 101.883C54.2358 101.816 54.2358 101.743 54.2358 101.669C54.2358 88.8906 59.0876 68.0778 67.4679 37.5486C73.5694 15.2751 70.9965 0.0842285 57.6173 0.0842285H57.3968C54.3828 0.0842285 51.8834 1.24992 49.4575 3.15338C47.0316 4.9757 44.6793 9.07036 42.4004 14.5447C39.901 20.683 24.6105 51.2786 0.211983 67.1261C-0.0820637 73.0431 3.29948 79.0338 10.2831 79.7569C16.5316 80.3397 21.0158 77.7132 26.7497 73.8399L25.5736 79.174C24.3533 83.9253 23.0668 90.3514 22.0597 96.8733L21.898 98.1571C18.5164 128.826 32.7042 143.944 49.3914 143.944C52.1848 143.944 54.9783 143.575 57.6982 142.852C76.0762 138.248 93.719 117.221 114.662 68.8746C114.508 71.2872 114.427 74.0981 114.427 76.9312C114.427 79.2257 114.486 81.498 114.596 83.763C116.022 111.4 126.961 119.634 142.516 119.634C154.278 119.634 165.231 113.569 170.818 105.978C174.303 101.61 176.464 96.0618 176.626 90.0194V89.9825C176.471 86.4043 175.369 83.5564 173.531 82.0882Z" fill="#E35050"/>
</svg>
