<svg width="103" height="144" viewBox="0 0 103 144" fill="none" xmlns="http://www.w3.org/2000/svg">
<path d="M25.8754 119.649L25.4831 119.838L25.8718 119.641L22.8134 113.486C22.4015 112.678 21.9509 112.203 21.5984 111.933C21.9246 111.633 22.3552 111.144 22.7695 110.39L28.5674 99.8094H22.6691L17.6815 109.086C17.5236 109.349 17.3748 109.453 17.1407 109.539C16.9031 109.618 16.5602 109.639 16.1283 109.637H13.9902V102.559C13.9902 101.707 13.8088 100.994 13.3203 100.498C12.827 100.001 12.1113 99.809 11.2396 99.809H8.58789V124.832H13.9902V114.288H15.8564C16.3277 114.288 16.7205 114.303 16.9892 114.385C17.2624 114.473 17.4171 114.578 17.577 114.87L21.5183 122.785C21.9246 123.609 22.3847 124.162 23.0176 124.474C23.6496 124.781 24.3606 124.83 25.2785 124.832H28.5499L28.2157 124.19C28.2129 124.186 26.206 120.341 25.8754 119.649V119.649ZM49.2934 99.8094H47.1533C46.2968 99.8074 45.5822 99.9996 45.0866 100.494C44.5941 100.989 44.3979 101.701 44.4015 102.558V110.045H36.3854V102.558C36.3854 101.705 36.2067 100.994 35.7167 100.496C35.2198 99.9996 34.506 99.8074 33.6328 99.8094H31.0532V124.831H36.3854V114.696H44.4015V124.83H49.7316V99.8086H49.293L49.2934 99.8094ZM62.2995 106.607C62.4714 107.276 62.6756 108.031 62.8698 108.618L64.7479 114.094H59.85L61.7273 108.619C61.9239 108.031 62.1297 107.276 62.2995 106.607ZM64.9556 99.8094H59.6801L59.5757 100.097L50.5886 124.831H53.8994C54.7818 124.831 55.4545 124.722 55.9988 124.339C56.5411 123.952 56.855 123.362 57.1353 122.571L58.5285 118.642H66.0709L67.4658 122.569C67.7481 123.364 68.0727 123.957 68.6242 124.341C69.1732 124.722 69.8523 124.831 70.7336 124.831H74.0113L64.9556 99.809V99.8094ZM95.0005 99.8094H92.8584C91.9839 99.8094 91.269 100.002 90.7789 100.498C90.2864 100.996 90.105 101.707 90.105 102.561V113.614C90.105 113.984 90.1225 114.392 90.1469 114.795C89.8171 114.154 89.4395 113.472 89.0694 112.929L81.1199 99.8094H75.984V124.833H78.5735C79.4388 124.833 80.1509 124.652 80.643 124.16C81.1374 123.664 81.3161 122.951 81.3161 122.08V111.063C81.3161 110.699 81.3013 110.295 81.2778 109.899C81.6064 110.542 81.986 111.22 82.3584 111.754L90.3383 124.833H95.4371V99.8094H95.0005Z" fill="#23282E"/>
<path d="M12.2295 140.1L11.0265 136.852C10.8706 136.425 10.6772 135.674 10.6772 135.674H10.6512C10.6512 135.674 10.4571 136.424 10.3019 136.852L9.11046 140.1H12.2295ZM10.1855 134.69H11.1557L14.6081 143.788H14.3393C13.6925 143.788 13.5167 143.659 13.283 143.038L12.4751 140.889H8.86643L8.04499 143.038C7.81212 143.659 7.64983 143.788 7.00146 143.788H6.73828L10.1859 134.69H10.1855ZM27.6557 136.788C27.3048 136.041 26.3135 135.186 24.8588 135.186C22.8403 135.186 21.288 136.765 21.288 138.965C21.288 141.139 22.828 142.887 24.8987 142.887C25.8844 142.887 26.6743 142.559 27.1664 142.197C27.7645 141.757 28.3926 142.265 28.3926 142.265C28.3926 142.265 27.1373 143.74 24.8855 143.74C22.2195 143.74 20.3425 141.618 20.3425 138.965C20.3425 136.338 22.2705 134.333 24.8333 134.333C26.1272 134.333 27.7231 134.907 28.3276 136.279C28.6107 136.901 28.6466 137.197 28.6466 137.197C28.6466 137.197 27.8905 137.288 27.6557 136.788ZM39.5816 140.1L38.3777 136.852C38.2226 136.425 38.0284 135.674 38.0284 135.674H38.0025C38.0025 135.674 37.8083 136.424 37.6524 136.852L36.4617 140.1H39.5816ZM37.536 134.69H38.5069L41.9593 143.788H41.6906C41.0434 143.788 40.868 143.659 40.6347 143.038L39.8272 140.889H36.2169L35.3963 143.038C35.163 143.659 35.0003 143.788 34.3527 143.788H34.0891L37.5364 134.69H37.536ZM50.6246 142.985H49.0974C48.9164 142.985 48.8131 142.895 48.8131 142.7V135.492H50.6246C52.8505 135.492 54.3386 136.812 54.3386 139.232C54.3386 141.666 52.8632 142.985 50.6246 142.985V142.985ZM50.7148 134.69H47.9059V142.999C47.9059 143.555 48.1396 143.788 48.6955 143.788H50.7148C53.4582 143.788 55.2829 142.131 55.2829 139.232C55.2829 136.36 53.4582 134.691 50.7148 134.691V134.69ZM66.8276 142.985H63.6316C63.4501 142.985 63.3469 142.895 63.3469 142.7V139.608H66.763V138.806H63.3469V135.492H67.5916V135.481C67.5916 134.923 67.3583 134.69 66.8017 134.69H62.4405V142.999C62.4405 143.555 62.6738 143.788 63.23 143.788H67.1645C67.7204 143.788 67.9537 143.555 67.9537 142.998V142.985H66.8276ZM74.8545 134.69H75.7732L78.1805 139.983C78.3426 140.337 78.4938 140.695 78.6339 141.057H78.6594C78.6594 141.057 78.8923 140.449 79.0988 139.983L81.5065 134.69H82.4252L83.2171 143.788H82.9559C82.3993 143.788 82.2051 143.555 82.1664 142.999L81.7397 137.473C81.6999 136.981 81.6999 136.204 81.6999 136.204H81.6743C81.6743 136.204 81.4283 137.007 81.2078 137.473L79.0482 142.093H78.2331L76.0842 137.473C75.8769 137.02 75.6057 136.179 75.6057 136.179H75.5798C75.5798 136.179 75.5798 136.98 75.5403 137.473L75.1133 142.999C75.0746 143.555 74.8804 143.788 74.3237 143.788H74.1124L74.8545 134.69ZM91.8134 139.828L88.6453 134.69H88.9141C89.535 134.69 89.7678 134.78 90.1562 135.415L91.6966 137.99C91.8926 138.325 92.0779 138.666 92.2521 139.013H92.2788C92.2788 139.013 92.5499 138.468 92.8346 137.99L94.3746 135.415C94.763 134.781 94.9955 134.69 95.6175 134.69H95.8867L92.7186 139.828V143.788H91.8134V139.828Z" fill="black"/>
<path d="M8.20996 129.682H95.7949V129.285H8.20996V129.682Z" fill="#231F1F"/>
<path d="M61.2353 92.2545C56.3127 92.2545 51.5268 92.2453 46.7406 92.2637C45.9539 92.2661 45.9052 91.9523 46.0866 91.2947C47.0532 87.7913 46.865 84.2001 46.8403 80.6233C46.8351 79.8625 46.7306 79.1431 46.2278 78.5514C42.98 74.7401 41.8714 70.1345 41.1636 65.3339C40.2916 59.4204 38.6419 53.7266 35.869 48.3949C35.7003 48.0699 35.5604 47.727 35.4284 47.3836C35.1297 46.6093 34.92 45.7488 35.7701 45.2643C36.6414 44.7686 37.5765 45.0218 38.1594 45.8337C38.8935 46.8565 39.4976 47.9726 40.1472 49.0552C41.2039 50.8149 42.1976 52.6169 43.4971 54.2151C43.8736 54.6788 44.358 55.389 45.012 55.0337C45.5719 54.7287 45.2082 53.9866 45.1229 53.4299C44.3915 48.6441 43.86 43.8347 43.4932 39.0082C43.4082 37.8957 43.6758 36.8211 45.0028 36.6153C46.304 36.4132 46.5141 37.4679 46.7573 38.4001C47.8834 42.725 48.9975 47.0515 50.1459 51.37C50.2728 51.8457 50.2915 52.6472 50.8737 52.636C51.5731 52.6225 51.5292 51.7998 51.6329 51.2651C52.186 48.4156 52.1904 45.5099 52.4882 42.6329C52.7654 39.9652 52.9687 37.2888 53.1422 34.612C53.2323 33.2307 53.8938 32.4161 55.2464 32.3132C56.3936 32.2262 57.0105 33.1637 57.0077 34.805C56.9997 40.0713 56.9738 45.3372 56.9866 50.6032C56.9886 51.4099 56.7936 52.6356 57.6748 52.8007C58.438 52.9443 58.6298 51.7173 58.9109 51.0123C60.5518 46.9019 62.725 43.0408 64.5094 38.9975C64.9736 37.9448 65.8764 37.6612 66.8649 38.0169C68.1564 38.4823 67.9188 39.5976 67.6189 40.5614C66.0565 45.5815 64.4667 50.5931 62.8498 55.596C62.3139 57.252 62.2485 58.8936 62.6776 60.5664C62.7434 60.8212 62.7952 61.0824 62.8961 61.3232C63.2151 62.0849 63.3519 63.1049 64.3256 63.2361C65.2049 63.3545 65.6367 62.476 66.1427 61.8955C67.5842 60.2446 68.757 58.2708 71.2268 57.9279C72.2799 57.7811 73.3203 57.6998 74.3535 58.0264C75.7 58.4538 75.8775 59.0288 74.8978 60.0042C74.3794 60.5214 73.8084 61.0182 73.1815 61.3878C70.3775 63.0347 68.5691 65.4607 67.3645 68.4342C66.7333 69.9925 65.9493 71.4891 65.1913 72.992C64.5469 74.268 63.822 75.6277 62.6776 76.3961C60.5231 77.844 60.3305 79.8999 60.2296 82.1338C60.0765 85.5084 60.179 88.8527 61.2353 92.2541V92.2545Z" fill="#9A9188"/>
<path d="M24.3802 38.8382C25.9174 40.6282 27.4542 42.4178 28.9998 44.2186C25.6582 45.5209 21.2983 44.2915 18.9564 41.3316C16.4 38.0985 15.4992 34.3044 15.3963 30.2678C15.3832 29.7837 15.3904 29.3188 16.069 29.2398C21.4913 28.6078 30.5904 33.3242 30.6754 40.5106C30.6778 40.7741 30.7033 41.0409 30.6662 41.2997C30.5737 41.9572 30.6981 42.8919 30.1079 43.1391C29.5178 43.3876 29.1545 42.486 28.6987 42.0884C27.353 40.9133 26.0379 39.7027 24.7112 38.5048C24.3077 38.3254 24.2877 38.5252 24.3802 38.8382ZM66.7135 27.8924C64.5112 29.3 63.0039 31.4014 61.2223 33.2485C59.4398 30.6518 60.2557 25.8388 62.97 23.1688C65.3741 20.8042 68.3568 19.5409 71.6198 18.9053C74.3369 18.3762 74.3947 18.4388 74.3963 21.2755C74.3991 25.066 73.1031 28.4016 70.6639 31.2571C68.4604 33.8362 65.6468 34.9308 62.0102 34.3422C63.6491 32.0941 65.1819 29.9934 66.7135 27.8924ZM86.1707 62.0249C84.2746 60.4717 81.9614 59.7404 79.7946 58.6901C81.5902 56.3446 86.1188 55.6688 89.2913 57.3104C92.1001 58.7647 94.0963 61.0551 95.6139 63.7794C96.878 66.0479 96.8381 66.1173 94.31 66.9455C90.9314 68.0532 87.5798 67.8702 84.322 66.5276C81.3804 65.315 79.5848 63.1254 79.0493 59.7117L86.1711 62.0249M50.0763 20.4413C49.3099 22.8231 49.0037 25.2622 48.7285 27.7074C48.6839 28.1053 48.8888 28.6604 48.445 28.8598C47.9294 29.0919 47.5917 28.5623 47.2707 28.2664C44.5803 25.7838 43.6982 22.782 44.8012 19.2586C45.832 15.9621 47.817 13.2845 50.2713 10.9127C50.7821 10.4195 51.1629 10.3022 51.6582 10.9554C54.6911 14.9573 56.1872 19.3571 55.0675 24.3862C54.581 26.5666 53.1918 28.0954 51.1398 29.0189C50.2777 29.4077 49.861 29.4862 49.9347 28.2306C50.0879 25.6411 50.5249 23.0515 50.0763 20.4413ZM39.9815 37.9514C39.1931 35.5979 38.4339 33.3346 37.6751 31.0721C37.4251 33.1344 38.087 35.005 38.4766 36.9214C38.5575 37.3209 38.8618 37.8078 38.4845 38.0989C38.1245 38.378 37.6791 38.0124 37.3134 37.8485C34.0237 36.3723 32.0359 33.9008 31.7229 30.2522C31.4314 26.8425 32.3633 23.6888 33.9204 20.6921C34.174 20.2045 34.3901 19.7949 35.1067 20.1307C40.0493 22.4458 44.0515 29.5672 42.305 34.5556C41.8532 35.8479 41.273 37.0685 39.9819 37.9514M26.9311 55.575C28.877 57.4145 30.8229 59.2531 32.8294 61.1512C30.9046 62.3415 28.3889 62.4057 26.2967 61.1472C21.6771 58.3707 19.348 54.1332 18.9002 48.8098C18.836 48.0442 19.139 47.8065 19.9178 47.8875C23.9149 48.3038 27.6644 49.4159 30.8863 51.8922C33.3913 53.8169 34.3953 56.4084 33.8977 59.553C33.8494 59.8581 33.9073 60.2516 33.5556 60.3724C33.1979 60.4961 33.024 60.1192 32.8079 59.9175C31.0398 58.2614 29.2083 56.6824 27.2485 55.258C27.1671 55.1603 27.0762 55.1356 26.9897 55.2018C26.8541 55.3047 26.8134 55.4291 26.9311 55.5746M29.1286 22.78C26.5247 21.6715 24.4121 19.8496 21.7277 19.2638C23.7506 21.047 26.0215 22.4494 28.2924 23.8534C26.9502 25.7236 22.7749 26.1463 20.5989 24.8491C16.7541 22.5575 14.8293 18.8611 13.4141 14.8153C13.2044 14.2148 13.5369 13.9608 14.0777 13.8176C18.7837 12.5707 23.1908 13.1198 26.9953 16.2955C28.9304 17.9108 29.5832 20.1486 29.1286 22.78ZM68.931 51.2414C71.5464 50.3338 74.1147 49.7548 76.4674 48.5642C73.8476 48.7265 71.3725 49.6145 68.6474 50.1181C69.1678 47.6199 70.5379 45.9723 72.6952 45.1026C76.6169 43.5223 80.5119 43.7664 84.3065 45.6329C84.8803 45.9156 85.3337 46.184 84.7423 46.901C82.2218 49.957 79.4054 52.6191 75.3896 53.5203C72.8686 54.0865 70.7541 53.2515 68.931 51.2414ZM63.1801 9.669C62.1617 11.7018 61.7705 13.9181 61.1756 16.0754C59.1655 15.1997 57.8297 12.5185 58.3309 10.1898C59.1204 6.52922 61.5305 4.00113 64.3796 1.80001C64.9546 1.3558 65.2118 1.68955 65.4881 2.1222C67.5202 5.29189 68.263 8.68448 67.1792 12.3578C66.623 14.2423 65.351 15.5199 63.5374 16.2536C62.5605 16.6488 62.1709 16.3752 62.4038 15.2795C62.7949 13.4352 63.2184 11.5914 63.1801 9.669ZM38.272 12.6114C39.0225 14.22 39.7741 15.8285 40.5305 17.4491C38.0595 17.9316 35.5342 16.5419 34.4336 14.0529C33.1875 11.2377 33.3382 8.31484 33.8833 5.37284C34.0014 4.73962 34.298 4.60404 34.879 4.80182C38.4822 6.0248 41.3448 8.11586 42.7592 11.77C43.4929 13.6653 43.1771 15.4784 41.6909 17.225L38.5958 12.2808C38.2054 12.1142 38.1875 12.3127 38.272 12.6114ZM88.9739 37.4095C91.1343 36.5202 93.2784 35.9883 95.4843 34.5472C92.8027 34.6325 90.738 35.5844 88.5568 36.0122C88.5536 33.7054 89.5796 32.0638 91.7588 31.2635C95.1075 30.0329 98.3741 30.4237 101.523 32.0578C102.128 32.3708 102.235 32.7213 101.894 33.2943C100.498 35.637 98.8219 37.7129 96.3361 38.9714C93.6991 40.306 91.122 39.7665 88.9739 37.4095ZM33.9061 72.357C35.0912 71.9383 36.2699 71.4984 37.4661 71.1136C37.8808 70.9797 38.333 70.4677 38.7501 70.9003C39.1234 71.2875 38.7529 71.8047 38.6437 72.2421C38.138 74.2698 36.7882 75.5131 34.82 76.0303C32.3095 76.6914 29.8284 76.3413 27.3717 75.6224C26.6428 75.4086 26.4362 75.0681 26.7425 74.3731C28.1529 71.1727 30.3328 68.8491 33.8849 68.0975C35.6829 67.7171 37.1296 68.4005 38.5436 69.6454L33.5998 72.0415C33.5093 72.1213 33.4786 72.2138 33.5376 72.3039C33.6361 72.4547 33.7685 72.4415 33.9061 72.357ZM10.3465 53.4038C12.29 54.0857 14.1825 53.5673 16.0599 53.732C15.7141 55.7537 13.968 57.3192 11.8147 57.4635C8.69369 57.6733 6.10339 56.3251 3.66023 54.5821C3.17135 54.2324 3.17973 53.9242 3.52146 53.413C5.24288 50.8399 9.98405 49.0024 12.9161 49.827C14.4106 50.2473 15.4841 51.1449 16.2134 52.7068L10.3465 53.4038ZM77.4962 35.9444C76.414 36.7667 75.3309 37.5881 74.24 38.4167C73.4596 36.2993 74.3396 33.7282 76.4108 32.2516C78.6171 30.6765 81.15 30.0951 83.8196 29.948C84.7072 29.8993 84.9273 30.2614 84.7714 31.0553C84.1286 34.3183 82.674 37.1092 79.9035 39.0463C78.3045 40.1636 76.5547 40.4619 74.61 39.3466C75.7345 38.2795 76.7872 37.2795 77.8387 36.2806C77.9069 36.145 78.0429 35.9133 78.0086 35.8782C77.8395 35.7036 77.6716 35.9165 77.4958 35.9444M12.3024 38.0148C10.4179 38.6217 8.57207 38.9865 6.5791 39.9918C8.48913 40.2757 9.95175 39.6704 11.457 39.4746C11.8359 39.4255 12.314 39.0164 12.6079 39.4566C12.8511 39.8211 12.5425 40.2665 12.3893 40.6533C11.7489 42.2683 10.4729 43.1774 8.8508 43.4964C6.18114 44.0216 3.62394 43.618 1.22703 42.2603C0.369314 41.7738 0.112119 41.3045 0.784018 40.4276C2.04886 38.7756 3.45965 37.2974 5.32981 36.3484C7.9556 35.0173 10.2791 35.56 12.3024 38.0152M83.8061 20.7527C82.5133 21.4326 81.2201 22.1117 79.9262 22.7904C79.2662 20.8524 80.0777 18.7199 81.9806 17.6401C84.3727 16.2823 86.9753 16.1743 89.633 16.5012C90.3536 16.5898 90.6507 16.9279 90.4565 17.6632C89.6988 20.5358 88.1955 22.8657 85.4996 24.2542C83.7211 25.1693 81.9646 25.0421 80.2081 23.7865L84.3129 20.8181C84.1932 20.415 83.9775 20.7583 83.8064 20.7527M75.4829 71.2137C73.9361 70.502 72.3897 69.7902 70.8434 69.0776C72.1648 67.0902 74.7109 66.3246 77.0607 67.3151C80.0147 68.5592 81.9642 70.8872 83.5508 73.574C83.9807 74.3029 83.8802 74.8173 83.0628 75.1602C79.8704 76.502 76.6508 76.7696 73.4524 75.2655C71.343 74.2738 70.2122 72.5603 70.124 70.0458L75.7823 71.7273C76.0698 71.3302 75.5997 71.3752 75.4829 71.2137ZM11.3837 29.7733C9.91746 29.3758 8.77463 28.3777 6.93319 28.3845L11.1747 30.6374C9.69057 31.9701 8.13703 32.1818 6.50413 31.6088C3.80976 30.6622 2.06481 28.7111 0.953887 26.122C0.63608 25.3803 0.853002 25.0704 1.59189 24.9217C3.73399 24.491 5.8753 24.3459 7.99707 24.9783C10.246 25.6486 11.4606 27.3609 11.3837 29.7733ZM23.867 65.0713C22.7944 65.1898 21.9279 65.2747 21.0638 65.3856C20.2551 65.4884 19.4505 65.6184 18.6797 65.963C20.0921 65.963 21.504 65.9849 22.916 65.9554C23.8172 65.9378 23.9217 66.2732 23.4771 66.973C22.658 68.261 21.4542 68.9779 19.9772 69.1271C17.3522 69.3934 15.0036 68.6422 12.9077 67.0324C12.1748 66.4702 12.1517 66.0523 12.8798 65.4625C14.785 63.9237 16.772 62.5795 19.3256 62.4559C21.2815 62.3618 22.7262 63.1944 23.867 65.0717M78.013 9.30773C76.1057 10.0143 74.7831 11.0455 73.2479 11.8893C72.7526 9.86838 73.4421 8.44722 74.9398 7.41605C76.9395 6.03716 79.1777 5.6719 81.5635 6.07384C82.3949 6.2146 82.7573 6.5033 82.4555 7.43279C81.8645 9.25589 81.1109 10.9618 79.7192 12.3311C78.3774 13.6525 76.7948 13.8822 75.059 13.3838C74.724 13.2869 74.2695 13.1007 74.1626 12.8367C73.9951 12.422 74.5358 12.2976 74.799 12.0854C75.7995 11.278 76.9351 10.6268 78.013 9.30773ZM89.7917 47.8592C91.4374 47.6108 92.9547 48.4342 94.7339 48.0346C93.146 47.2969 91.5694 47.2826 90.0952 46.8874C91.0111 44.7007 93.3877 43.7692 95.9652 44.6532C98.0714 45.3757 99.739 46.7467 101.214 48.3867C101.725 48.9538 101.797 49.3278 101.095 49.8063C98.6253 51.4878 95.9616 52.2072 93.036 51.3881C91.3022 50.9017 90.1371 49.7752 89.7917 47.8592ZM47.1327 5.66791C47.3321 6.43073 48.1543 6.84862 48.2787 7.66567C45.9691 8.12423 44.5871 7.30679 43.5974 4.86722C42.9956 3.38465 42.3198 1.37574 43.4036 0.423912C44.4898 -0.52831 46.2491 0.74451 47.5327 1.51211C49.6768 2.79609 50.1704 4.47365 49.2537 6.95828C48.3928 6.68075 48.197 5.7034 47.4972 5.2887C47.0506 5.10328 47.0039 5.30146 47.1327 5.66791ZM28.5372 11.8968C26.4051 11.8988 25.2651 11.1336 24.6984 9.37751C24.1661 7.72349 24.3424 6.06387 24.7515 4.41144C24.8831 3.88309 25.1223 3.61593 25.746 3.72319C27.7736 4.0729 30.4644 6.95828 30.5829 9.02541C30.6371 9.98481 30.4401 10.7054 29.5848 11.4299C28.9181 10.2711 28.2338 9.32049 27.5898 8.2C27.4686 9.53781 28.2657 10.5865 28.5376 11.8968" fill="#9EB63A"/>
</svg>
