<svg width="178" height="144" viewBox="0 0 178 144" fill="none" xmlns="http://www.w3.org/2000/svg">
<path d="M127.349 44.4534C127.361 44.2762 127.361 44.1108 127.373 43.9573C127.361 44.1108 127.361 44.2762 127.349 44.4534ZM127.302 45.4338C127.314 45.233 127.326 45.0204 127.338 44.8314C127.326 45.0204 127.314 45.2212 127.302 45.4338ZM127.208 46.5087C127.219 46.4142 127.231 46.3315 127.231 46.237C127.219 46.3315 127.219 46.4142 127.208 46.5087ZM127.385 43.6856C127.385 43.4493 127.397 43.2249 127.397 43.0123C127.385 43.2249 127.385 43.4493 127.385 43.6856ZM50.5584 46.237C50.5702 46.3315 50.5702 46.426 50.582 46.5205C50.5702 46.4142 50.5584 46.3315 50.5584 46.237ZM50.4521 44.8195C50.4639 45.0204 50.4757 45.233 50.4875 45.4456C50.4757 45.2448 50.4639 45.0204 50.4521 44.8195ZM50.4166 43.9573C50.4166 44.1226 50.4284 44.288 50.4402 44.4652C50.4284 44.288 50.4166 44.1108 50.4166 43.9573ZM50.6647 47.2883V47.3119V47.2883ZM50.4048 43.6856C50.4048 43.4493 50.393 43.2249 50.393 43.0241C50.393 43.2249 50.4048 43.4493 50.4048 43.6856ZM137.449 43.0005L134.767 42.6107C132.807 42.3272 130.373 41.9728 127.385 41.6184V11.1194C127.633 10.5878 130.692 3.74857 130.692 3.74857L128.743 3.41784C128.554 3.3824 109.513 0.240356 88.8889 0.240356C68.253 0.240356 49.2118 3.39421 49.0228 3.41784L47.0738 3.74857C47.0738 3.74857 50.1449 10.5878 50.393 11.1194V41.6184C47.4045 41.9728 44.9712 42.3272 43.0104 42.6107L40.3408 42.9887L40.9314 44.5361C41.4748 45.9771 43.3293 49.7925 43.9081 50.9855C43.471 53.159 43.1285 55.8758 43.0458 58.4508L42.9867 60.01L44.5341 59.7974C46.7666 59.5021 49.8378 59.1595 53.4405 58.8052V58.7934C54.5036 61.6873 55.9211 64.7821 57.8347 67.9951C64.1896 78.6615 73.6984 86.9064 86.0776 92.5172L88.2747 93.5212L88.9125 93.8047L91.7356 92.5172C104.115 86.9064 113.612 78.6615 119.979 67.9951C121.892 64.7821 123.298 61.6873 124.361 58.7934C127.975 59.1477 131.035 59.4903 133.267 59.7856L134.815 59.9982L134.756 58.439C134.661 55.8639 134.33 53.1471 133.893 50.9737C134.472 49.7689 136.327 45.9535 136.87 44.5242L137.449 43.0005Z" fill="#10427A"/>
<path d="M135.642 44.0625C133.527 43.7554 130.834 43.3538 127.397 42.9403V43.0112C127.397 45.539 127.066 50.8899 124.81 57.5284C128.401 57.8827 131.378 58.2253 133.445 58.497C133.338 55.7447 132.996 52.8626 132.535 50.7718C132.523 50.7836 135.004 45.7044 135.642 44.0625ZM50.3933 42.9403C46.956 43.3538 44.2628 43.7554 42.1484 44.0625C42.7745 45.7044 45.255 50.7836 45.255 50.7836C44.8062 52.8626 44.4518 55.7566 44.3455 58.5088C46.4126 58.2371 49.3893 57.8946 52.9802 57.5402C50.7241 50.8899 50.3933 45.5508 50.3933 43.023V42.9403Z" fill="#FDDC04"/>
<path d="M79.6748 9.10764C79.8638 9.02495 80.0292 8.95407 80.1591 8.89501C80.289 8.82414 80.3954 8.76508 80.478 8.70602C80.5489 8.64696 80.608 8.59972 80.6198 8.56428C80.6434 8.52884 80.6552 8.44615 80.667 8.3044C80.6788 8.17447 80.6788 7.98548 80.6907 7.76105V4.70169C80.6907 4.47726 80.6788 4.30008 80.667 4.15833C80.6552 4.0284 80.6434 3.93391 80.6198 3.89847C80.5962 3.85122 80.5489 3.81579 80.4662 3.76854C80.3953 3.72129 80.289 3.67403 80.1591 3.62678C80.0292 3.57953 79.8638 3.52048 79.6866 3.47323V3.33148C79.852 3.31967 80.0174 3.31967 80.1709 3.30786C80.3363 3.29605 80.4898 3.28423 80.6434 3.27242C80.797 3.26061 80.9505 3.24879 81.0923 3.22517C81.2458 3.20154 81.3876 3.18973 81.5293 3.16611C81.6711 3.14248 81.9427 3.08342 81.9546 3.09523C81.9664 3.10705 81.9546 3.27242 81.9427 3.37873C81.9427 3.48504 81.9309 3.61497 81.9309 3.75671C81.9309 3.89846 81.9309 4.05202 81.9191 4.2292C81.9191 4.40638 81.9191 4.59539 81.9073 4.79619V5.45767V6.21365V6.57983V6.92238V7.76105C81.9073 7.98548 81.9191 8.17447 81.9309 8.3044C81.9427 8.43434 81.9546 8.52884 81.9782 8.56428C82.0018 8.59972 82.0491 8.64696 82.1317 8.70602C82.2144 8.76508 82.3089 8.82414 82.4389 8.8832C82.5688 8.95408 82.7224 9.02495 82.9113 9.10764V9.28482C82.7342 9.27301 82.5806 9.26119 82.427 9.24938C82.2735 9.23757 82.1317 9.23757 81.99 9.22576C81.8483 9.21395 81.7301 9.21395 81.612 9.21395H81.2813C81.175 9.21395 81.0686 9.21395 80.9387 9.22576C80.8206 9.22576 80.6907 9.23757 80.5607 9.23757C80.4308 9.24938 80.289 9.24939 80.1355 9.2612L79.6748 9.29663V9.10764Z" fill="#FDDC04"/>
<path d="M86.6916 4.68598C86.6916 4.46154 86.6561 4.26074 86.5852 4.09537C86.5144 3.93 86.4199 3.78825 86.3018 3.69375C86.1836 3.59925 86.0419 3.55201 85.8883 3.55201C85.7466 3.55201 85.6285 3.59926 85.5221 3.65832C85.4158 3.7292 85.3332 3.82369 85.2623 3.95363C85.2032 4.07175 85.1678 4.2135 85.1678 4.36705C85.1678 4.49699 85.1914 4.62692 85.2387 4.74504C85.2859 4.86316 85.3568 4.98128 85.4513 5.0994C85.5458 5.21753 85.6639 5.32384 85.8056 5.44196C85.9474 5.56008 86.2191 5.80814 86.2899 5.79632C86.3372 5.78451 86.4671 5.59552 86.5262 5.48921C86.5852 5.3829 86.6325 5.26478 86.6561 5.13485C86.6797 4.98129 86.6916 4.83954 86.6916 4.68598ZM85.0024 8.28869C85.0024 8.50131 85.026 8.6785 85.0733 8.85568C85.1205 9.02105 85.1914 9.1628 85.2741 9.28092C85.3568 9.39904 85.4631 9.49354 85.5812 9.5526C85.6993 9.61167 85.8293 9.64709 85.971 9.64709C86.1364 9.64709 86.2781 9.59985 86.4081 9.50535C86.538 9.41086 86.6443 9.28092 86.7152 9.11555C86.7861 8.95017 86.8333 8.76119 86.8333 8.54857C86.8333 8.39501 86.8097 8.24144 86.7506 8.11151C86.7034 7.96976 86.6207 7.85165 86.5144 7.72172C86.4081 7.59178 86.2781 7.47365 86.1246 7.34372C85.971 7.21378 85.6757 6.9421 85.5812 6.9421C85.5103 6.9421 85.345 7.17835 85.2505 7.3201C85.1678 7.46185 85.0969 7.60358 85.0497 7.76895C85.026 7.93432 85.0024 8.0997 85.0024 8.28869ZM84.1165 4.95766C84.1165 4.78048 84.1401 4.6151 84.1874 4.44973C84.2346 4.28436 84.3055 4.1308 84.3882 3.97725C84.4709 3.8355 84.5772 3.69375 84.7071 3.57563C84.837 3.45751 84.967 3.3512 85.1323 3.25671C85.2859 3.17402 85.4631 3.10315 85.6403 3.0559C85.8293 3.00866 86.0183 2.97321 86.2191 2.97321C86.4081 2.97321 86.5852 2.99683 86.7506 3.04408C86.916 3.09133 87.0577 3.16221 87.1877 3.2449C87.3176 3.32758 87.4239 3.43389 87.5184 3.55201C87.6129 3.67013 87.672 3.81188 87.7192 3.95363C87.7665 4.09537 87.7901 4.26074 87.7901 4.42611C87.7901 4.59149 87.7665 4.74504 87.731 4.8986C87.6956 5.05216 87.6247 5.1939 87.542 5.32384C87.4594 5.46558 87.353 5.59552 87.2349 5.72545C87.105 5.85539 86.7979 6.10344 86.7979 6.11525C86.7979 6.15068 87.105 6.33968 87.2349 6.4578C87.3648 6.56411 87.483 6.68224 87.5775 6.80036C87.672 6.91848 87.7547 7.0366 87.8137 7.15473C87.8728 7.28466 87.92 7.4146 87.9555 7.54453C87.9909 7.68628 88.0027 7.82802 88.0027 7.99339C88.0027 8.18238 87.9791 8.35957 87.9436 8.52494C87.9082 8.69031 87.8492 8.84386 87.7547 8.99742C87.672 9.15098 87.5657 9.28091 87.4357 9.42266C87.3058 9.56441 87.1759 9.68254 87.0341 9.78885C86.8924 9.89516 86.7388 9.97784 86.5852 10.0487C86.4317 10.1196 86.2663 10.1668 86.1009 10.2023C85.9356 10.2377 85.7584 10.2495 85.5812 10.2495C85.404 10.2495 85.2387 10.2259 85.0851 10.1905C84.9315 10.155 84.7898 10.096 84.6599 10.0251C84.5299 9.95422 84.4118 9.85971 84.3173 9.76522C84.211 9.65891 84.1283 9.54078 84.0574 9.42266C83.9866 9.29272 83.9275 9.16279 83.8921 9.00923C83.8535 8.85869 83.8337 8.70397 83.833 8.54857C83.833 8.39501 83.8448 8.24145 83.8803 8.0997C83.9157 7.95795 83.9629 7.82802 84.0338 7.69808C84.1047 7.56815 84.1874 7.45003 84.2937 7.34372C84.4 7.2256 84.5181 7.11929 84.6599 7.01299C84.8016 6.90668 85.1323 6.69405 85.1323 6.69405C85.1323 6.65861 84.8134 6.45781 84.6835 6.32787C84.5536 6.19794 84.4472 6.068 84.3646 5.92626C84.2819 5.78451 84.211 5.63096 84.1756 5.4774C84.1283 5.28841 84.1165 5.12303 84.1165 4.95766Z" fill="#FDDC04"/>
<path d="M89.0547 9.70615C89.2673 9.67072 89.4563 9.61167 89.6335 9.5526C89.8107 9.49354 89.9879 9.41086 90.1414 9.32817C90.295 9.24548 90.4367 9.15098 90.5548 9.05648C90.6848 8.95017 90.7911 8.84387 90.8856 8.72575C90.9801 8.60763 91.0628 8.47769 91.1218 8.34775C91.1809 8.21782 91.2281 8.07607 91.2636 7.93433C91.299 7.79258 91.3108 7.63903 91.3108 7.48547C91.3108 7.3201 91.2872 7.17835 91.2518 7.0366C91.2163 6.90667 91.1454 6.77674 91.0628 6.67043C90.9801 6.56412 90.8856 6.46962 90.7556 6.39874C90.6375 6.32787 90.4958 6.26881 90.3422 6.23337C90.1887 6.19793 90.0115 6.17431 89.8107 6.17431C89.728 6.17431 89.6335 6.17432 89.5272 6.18613C89.4209 6.19794 89.1492 6.23337 89.1374 6.20975C89.1137 6.17431 89.1964 5.80814 89.2319 5.60733C89.2673 5.40652 89.2909 5.21753 89.3264 5.02853C89.35 4.83954 89.3854 4.66236 89.4091 4.48517C89.4327 4.30799 89.4563 4.13081 89.4799 3.96544L89.5508 3.46933C89.5744 3.31577 89.5862 3.02047 89.6099 2.99684C89.6335 2.97322 89.8343 3.03227 89.9642 3.04408C90.0942 3.05589 90.2359 3.06771 90.4013 3.06771C90.5548 3.06771 90.732 3.07952 90.9092 3.07952H91.3581C91.4998 3.07952 91.6416 3.07952 91.7833 3.06771C91.925 3.06771 92.055 3.0559 92.1849 3.0559C92.3149 3.04409 92.5629 3.02046 92.5747 3.03227C92.5983 3.05589 92.5511 3.28033 92.5511 3.41027V3.81187V4.08356C92.5511 4.21349 92.5629 4.39067 92.5629 4.61511H92.4802C92.4093 4.47336 92.3267 4.39068 92.244 4.35524C92.1613 4.30799 92.055 4.30799 91.9487 4.29618H90.0942C90.0705 4.48518 90.0469 4.62692 90.0233 4.76867C89.9997 4.91042 89.976 5.05216 89.9524 5.24116C90.0942 5.22934 90.2359 5.22933 90.3777 5.22933C90.5903 5.22933 90.7911 5.24115 90.9683 5.27658C91.1454 5.30021 91.3226 5.34745 91.4762 5.40652C91.6297 5.46558 91.7715 5.53646 91.8896 5.61914C92.0077 5.70183 92.114 5.79633 92.2085 5.90264C92.303 6.00895 92.3739 6.13888 92.433 6.26881C92.492 6.41056 92.5393 6.55231 92.5747 6.71768C92.6102 6.88305 92.622 7.06023 92.622 7.24923C92.622 7.4146 92.6102 7.56816 92.5865 7.72172C92.5629 7.87527 92.5275 8.02882 92.4684 8.17057C92.4212 8.31232 92.3503 8.45406 92.2794 8.584C92.2085 8.71393 92.114 8.84387 92.0195 8.962C91.925 9.08012 91.8069 9.19823 91.6888 9.30454C91.5707 9.41085 91.4289 9.50534 91.2872 9.59984C91.1454 9.69434 90.9919 9.76522 90.8265 9.84791C90.6611 9.91878 90.484 9.98965 90.295 10.0369C90.106 10.096 89.9052 10.1314 89.7044 10.1786C89.4917 10.2141 89.2791 10.2377 89.0547 10.2495V9.70615Z" fill="#FDDC04"/>
<path d="M96.65 6.68632C96.65 6.39101 96.6382 6.11933 96.6264 5.87127C96.6146 5.62322 96.591 5.38697 96.5673 5.17435C96.5437 4.96173 96.5083 4.77275 96.4728 4.60738C96.4374 4.44201 96.3902 4.28844 96.3429 4.15851C96.2957 4.02857 96.2366 3.92227 96.1775 3.83958C96.1185 3.7569 96.0476 3.68602 95.9767 3.63877C95.9059 3.59152 95.835 3.5679 95.7523 3.5679C95.646 3.5679 95.5515 3.59153 95.4806 3.65059C95.3979 3.70965 95.3389 3.79233 95.268 3.91045C95.2089 4.02858 95.1617 4.17032 95.1263 4.3475C95.0908 4.52468 95.0672 4.7255 95.0436 4.96174C95.02 5.19799 95.02 5.46966 95.02 5.76496C95.02 6.06027 95.0318 6.33195 95.0436 6.58C95.0554 6.82806 95.079 7.06431 95.1026 7.27693C95.1263 7.48954 95.1617 7.67855 95.1971 7.84392C95.2326 8.00929 95.2798 8.16284 95.3271 8.29277C95.3743 8.4227 95.4334 8.52902 95.4924 8.61171C95.5515 8.69439 95.6224 8.75345 95.6932 8.8007C95.7641 8.84795 95.8468 8.87157 95.9295 8.87157C96.0358 8.87157 96.1303 8.84795 96.213 8.78889C96.2957 8.72983 96.3665 8.64714 96.4256 8.52901C96.4847 8.41089 96.5319 8.26915 96.5673 8.09197C96.6028 7.91479 96.6264 7.71397 96.65 7.47773C96.6382 7.2533 96.65 6.99343 96.65 6.68632ZM93.7324 6.34376C93.7324 6.16658 93.7442 5.9894 93.756 5.81221C93.7679 5.63503 93.8033 5.46967 93.8269 5.3043C93.8624 5.13893 93.8978 4.97355 93.9569 4.81999C94.0041 4.66643 94.0632 4.51288 94.134 4.37113C94.2167 4.20576 94.2994 4.0522 94.3939 3.91045C94.4884 3.76871 94.5947 3.65059 94.701 3.54428C94.8073 3.43797 94.9255 3.35528 95.0436 3.2844C95.1617 3.21353 95.2916 3.16629 95.4216 3.13085C95.5515 3.09542 95.6814 3.0836 95.8114 3.0836C95.9649 3.0836 96.1067 3.10723 96.2484 3.14266C96.3902 3.1781 96.5201 3.23716 96.65 3.30804C96.78 3.37891 96.8981 3.46159 97.0044 3.5679C97.1107 3.6624 97.217 3.78052 97.3115 3.91045C97.406 4.04039 97.4887 4.18213 97.5596 4.33569C97.6304 4.48925 97.6895 4.65463 97.7486 4.83181C97.7958 5.00899 97.8312 5.19798 97.8667 5.4106C97.8903 5.6114 97.9021 5.82402 97.9021 6.04846C97.9021 6.29651 97.8903 6.54456 97.8667 6.769C97.8431 6.99343 97.7958 7.21786 97.7486 7.41867C97.7013 7.61947 97.6304 7.80847 97.5596 7.98566C97.4887 8.16284 97.3942 8.31639 97.3115 8.46995C97.217 8.6117 97.1107 8.74164 97.0044 8.84795C96.8981 8.95426 96.78 9.06056 96.65 9.13143C96.5201 9.20231 96.3902 9.26137 96.2602 9.30861C96.1185 9.34405 95.9767 9.36768 95.835 9.36768C95.6814 9.36768 95.5397 9.34405 95.3979 9.30861C95.2562 9.27318 95.1263 9.22594 94.9963 9.15507C94.8664 9.08419 94.7483 9.0015 94.642 8.89519C94.5357 8.78888 94.4293 8.68258 94.3348 8.55265C94.2404 8.42271 94.1577 8.28096 94.0868 8.11559C94.0159 7.96203 93.9569 7.78484 93.9096 7.59585C93.8624 7.40685 93.8269 7.21786 93.7915 7.00524C93.756 6.79262 93.7324 6.58 93.7324 6.34376Z" fill="#FDDC04"/>
<path d="M87.6714 24.5821C87.6714 16.6916 81.2574 10.2776 73.3787 10.2776C65.4881 10.2776 59.0859 16.6916 59.0859 24.5821C59.0859 30.1457 62.2989 34.9769 66.9647 37.3275C70.9926 37.103 75.5521 36.9259 80.6786 36.8432C84.8601 34.339 87.6714 29.7795 87.6714 24.5821ZM95.9636 54.1716C93.7193 54.1362 91.3568 54.1126 88.8881 54.1126C86.4193 54.1126 84.0687 54.1362 81.8126 54.1716C77.5011 56.6404 74.5953 61.2708 74.5953 66.5863C74.5953 74.4532 81.0093 80.8672 88.8881 80.8672C96.7668 80.8672 103.181 74.4414 103.181 66.5863C103.181 61.2708 100.275 56.6404 95.9636 54.1716ZM104.409 10.2776C96.5306 10.2776 90.1165 16.6916 90.1165 24.5821C90.1165 29.7795 92.9278 34.339 97.1094 36.8432C102.224 36.9377 106.784 37.103 110.811 37.3275C115.477 34.965 118.69 30.1457 118.69 24.5821C118.69 16.6916 112.288 10.2776 104.409 10.2776Z" fill="#FDDC04"/>
<path d="M93.9446 54.1451C92.3145 54.1215 90.6372 54.1097 88.889 54.1097C87.1408 54.1097 85.4753 54.1215 83.8334 54.1451C78.9313 56.1532 75.4585 60.9607 75.4585 66.5833C75.4585 73.9777 81.4827 80.002 88.889 80.002C96.2834 80.002 102.308 73.9777 102.308 66.5833C102.308 60.9607 98.8467 56.1532 93.9446 54.1451ZM86.81 24.5792C86.81 17.173 80.7858 11.1488 73.3914 11.1488C65.9852 11.1488 59.9609 17.173 59.9609 24.5792C59.9609 30.4144 63.7172 35.3873 68.9382 37.2182C71.9267 37.0765 75.1987 36.9466 78.7423 36.8757C83.479 34.8085 86.81 30.0719 86.81 24.5792ZM104.41 11.1488C97.0039 11.1488 90.9797 17.173 90.9797 24.5792C90.9797 30.0719 94.3108 34.8085 99.0475 36.8757C102.591 36.9584 105.851 37.0765 108.852 37.2182C114.073 35.3755 117.829 30.4144 117.829 24.5792C117.829 17.173 111.805 11.1488 104.41 11.1488Z" fill="#10427A"/>
<path d="M86.1127 24.5817C86.1127 17.5534 80.3956 11.8363 73.3791 11.8363C66.3509 11.8363 60.6338 17.5534 60.6338 24.5817C60.6338 30.8776 65.2405 36.1104 71.2529 37.1144C72.883 37.0435 74.584 36.9845 76.3676 36.9372C81.9548 35.5906 86.1127 30.5705 86.1127 24.5817ZM104.41 11.8363C97.3815 11.8363 91.6762 17.5534 91.6762 24.5817C91.6762 30.5705 95.8341 35.5906 101.421 36.9372C103.205 36.9845 104.906 37.0435 106.536 37.1144C112.548 36.0986 117.155 30.8776 117.155 24.5699C117.131 17.5534 111.426 11.8363 104.41 11.8363ZM91.5699 54.1239C90.6958 54.1239 89.8099 54.1121 88.9003 54.1121C87.9908 54.1121 87.1049 54.1121 86.2308 54.1239C80.4901 55.3524 76.1668 60.4671 76.1668 66.5858C76.1668 73.6022 81.8839 79.3193 88.9003 79.3193C95.9168 79.3193 101.634 73.614 101.634 66.5858C101.622 60.4789 97.3106 55.3642 91.5699 54.1239Z" fill="white"/>
<path d="M90.7205 55.659C90.6496 55.5291 90.496 55.4464 90.307 55.3992L88.9014 55.5764C88.3226 55.8126 87.165 56.1079 87.165 56.1079C87.0469 56.4268 87.2123 56.6276 87.3068 56.9229C87.354 57.0647 87.4131 57.2537 87.4721 57.4545L88.488 57.5844C89.0077 57.6553 89.0077 57.6553 89.2085 57.6671L89.3739 57.6789H89.4448C89.7519 57.7026 90.0354 57.7144 90.2598 57.6907C90.2716 57.6553 90.2716 57.6317 90.2716 57.5962C90.3779 57.1119 90.9685 56.1315 90.7205 55.659Z" fill="#10427A"/>
<path d="M91.0389 71.231C90.9326 71.1956 90.8263 71.172 90.72 71.1365L90.6137 71.7035L90.4956 72.932C90.6137 72.9911 90.72 73.0619 90.8027 73.1328C90.8145 73.1446 90.8263 73.1446 90.8263 73.1564C91.1334 73.4872 91.0744 74.0541 90.6491 74.3849C90.3302 74.6211 89.9995 74.7865 89.6687 74.8928C89.6923 74.7038 89.7042 74.5148 89.716 74.3376C89.7632 73.7234 89.7987 73.3218 89.8341 72.8847C89.8695 72.5422 89.905 72.1642 89.964 71.6327C89.9758 71.5027 90.0467 71.2074 90.1058 70.8885C90.1648 70.5577 90.2003 70.2034 90.1294 69.9317C90.1058 69.8372 90.0467 69.7663 89.9758 69.6836L89.3144 69.66H89.2553C88.6174 69.6128 88.1686 69.6246 87.8496 69.66C87.8851 69.8372 87.9205 70.0144 87.9323 70.2034C87.9323 70.2624 87.9323 70.3097 87.9441 70.3687C87.9678 70.7704 88.0741 71.172 88.1095 71.5736C88.1449 71.8571 88.2749 72.2469 88.1449 72.5068C88.1449 72.5068 88.145 72.5186 88.1331 72.5186C87.956 72.8375 87.8733 73.2037 87.8969 73.6289C87.9323 74.1368 87.9914 74.1841 88.0268 74.6566C88.0268 74.7629 88.0504 74.881 88.0623 74.9873C87.5543 74.9164 86.8102 74.7038 86.5267 74.1132C86.2314 73.4872 86.881 73.0029 86.5385 72.8729C86.3023 72.7902 85.7234 73.369 85.8179 74.1723C85.8888 74.7983 86.2432 75.2117 87.011 75.6724C87.3063 75.8496 87.7433 76.0032 88.1568 76.0977C88.1568 76.4166 88.1449 76.6765 88.2276 76.9954C88.2867 77.2553 88.2158 77.5624 88.4284 77.775C88.5938 77.9285 88.6765 77.9167 88.9009 78.0112C89.3852 77.7514 89.4915 76.9245 89.5152 76.4993C89.5152 76.4284 89.527 76.3221 89.5388 76.2276C90.2475 76.1922 90.909 76.015 91.3933 75.6488C92.4446 74.8574 92.8344 74.0305 92.7163 73.0383C92.5627 71.9634 91.8776 71.5145 91.0389 71.231Z" fill="#10427A"/>
<path d="M90.4247 64.1958C90.3538 63.995 90.2121 63.8887 90.0467 63.6997C89.7987 63.4044 89.9168 62.8138 89.9641 62.4358C89.9877 62.2232 90.0113 61.9988 90.0113 61.7743V61.3609L89.5861 61.1955C89.3026 61.0892 88.96 60.9475 88.7946 60.9239C88.6293 60.9002 88.2749 60.853 87.8733 60.8648C87.8497 61.3845 87.8615 62.0106 87.6134 62.4122C87.4835 62.6248 87.3772 62.7311 87.3417 62.8729C87.3299 62.9437 87.3299 63.0264 87.3536 63.1445C87.4244 63.4635 87.5189 63.7824 87.6016 64.1013C87.8024 64.7982 87.8379 65.0227 87.8851 65.7432C87.8851 65.7668 87.8851 65.8023 87.8969 65.8377C87.9087 65.9204 87.9205 66.0385 87.9324 66.1685C88.2631 66.1448 88.6056 66.1212 88.9718 66.0976L89.8341 66.0622L90.1176 66.0503C90.1412 65.8613 90.153 65.6723 90.1649 65.507C90.1649 65.4243 90.2594 65.1054 90.3184 64.7982C90.3893 64.5266 90.4365 64.2667 90.4247 64.1958Z" fill="#10427A"/>
<path d="M92.7751 59.1583C92.7161 59.3119 92.4798 59.3945 92.2318 59.3473C91.9601 59.2882 91.7711 59.0992 91.8184 58.9102C91.8538 58.7331 92.1018 58.6267 92.3735 58.6858C92.409 58.6976 92.4562 58.7094 92.4916 58.7212C92.657 58.7803 92.8933 58.9221 93.035 59.2764C93.035 59.2764 92.9169 59.2292 92.7751 59.1583ZM95.5628 59.5363C95.551 59.4418 95.5274 59.3 95.3974 59.2174C95.2675 59.1347 94.3343 58.7567 94.169 58.6976C94.0036 58.6504 93.602 58.4614 93.4248 58.3669C93.2476 58.2606 93.3539 58.2015 92.5743 58.0361C91.7947 57.8708 91.1569 58.1306 90.7907 58.2724C90.6844 58.3078 90.5663 58.3314 90.4363 58.3433C90.1174 58.3787 89.7394 58.3551 89.3378 58.3314C88.7826 58.296 89.2197 58.3433 87.3415 58.107C87.2825 58.0952 87.2352 58.0952 87.1762 58.0834C85.3807 57.918 84.0932 58.6622 83.6325 59.052C81.4591 60.8829 81.9552 62.8673 82.1205 63.3516C82.2859 63.8359 82.5458 64.4738 83.1128 64.9345C84.0105 65.655 85.05 65.8086 86.1131 65.7967C86.3847 65.7967 86.6682 65.7849 86.9399 65.7613C87.0462 65.7495 87.1289 65.7377 87.2352 65.7259C87.188 65.1116 87.1525 64.9108 86.9754 64.2612L86.9399 64.1549C86.8572 63.8595 86.7746 63.5642 86.7155 63.2571C86.7037 63.2217 86.7155 63.1981 86.7155 63.1744C86.5383 63.1981 86.3611 63.2099 86.1839 63.2099H86.1131C85.6288 63.1626 84.7783 62.6783 84.9791 61.816C85.1445 61.1309 85.487 60.812 86.2666 60.4813C86.6328 60.3277 87.0462 60.2568 87.436 60.2214C88.0621 60.1741 88.6527 60.2332 88.9007 60.2686C89.2551 60.3277 89.8812 60.623 90.3418 60.7766C90.4127 60.8002 90.4718 60.8238 90.5308 60.8356C90.7434 60.8947 91.7593 61.0719 92.6098 61.001C93.4602 60.9301 95.2084 60.5639 95.3974 60.3868C95.5864 60.1978 95.5864 59.6308 95.5628 59.5363Z" fill="#10427A"/>
<path d="M94.2877 63.7658C93.6499 62.4547 92.2206 62.0413 91.5473 61.9586C91.4646 61.9468 91.3701 61.9349 91.2756 61.9349C91.0866 61.9231 90.8858 61.9231 90.6614 61.9349C90.6496 62.1476 90.6378 62.3484 90.6142 62.5256L90.5905 62.6673C90.5787 62.7854 90.5433 63.0098 90.5433 63.1634C90.5433 63.2225 90.5551 63.2815 90.5669 63.317C90.5905 63.3406 90.6614 63.4233 90.6614 63.4233C90.7913 63.565 90.9449 63.7304 91.0394 64.0139C91.063 64.0966 91.0748 64.1674 91.0748 64.2619C91.0748 64.3564 91.063 64.4627 91.0394 64.6045C91.1575 64.6045 91.2756 64.5927 91.382 64.6281C91.5473 64.6754 91.6891 64.7581 91.8072 64.8998C92.4096 65.6322 92.0671 66.27 91.6654 66.5299C91.4646 66.6598 90.9567 66.6953 90.3189 66.7189C89.9172 66.7307 89.4566 66.7425 88.9959 66.7661C88.4407 66.7897 87.9092 66.837 87.3894 66.8961L86.8579 66.9669C85.1215 67.2032 84.4718 68.4435 84.2946 68.8923C83.7513 70.5224 85.1215 71.491 86.5153 71.9753C86.598 72.0107 86.6925 72.0344 86.7752 72.058C86.8815 72.0934 86.9996 72.1289 87.1059 72.1525L87.5312 72.2588C87.5312 72.1879 87.5076 72.058 87.4957 71.9753L87.4485 71.68L87.3776 71.2193C87.3304 70.9713 87.2949 70.7232 87.2831 70.4397L87.2713 70.2862V70.1917C87.2359 70.1798 87.2004 70.168 87.165 70.1444C87.0823 70.109 86.9996 70.0735 86.9288 70.0263C86.7279 69.92 86.5862 69.8019 86.5508 69.6956C86.4917 69.4121 86.7516 69.2349 87.1296 69.1404C87.921 68.9396 89.2439 69.0459 89.3384 69.0459C89.6219 69.0577 89.8936 69.0695 90.1653 69.0695C90.6614 69.0813 91.1457 69.0577 91.5828 68.9868C92.008 68.9159 92.3742 68.8096 92.7758 68.6325C93.2247 68.4316 93.9688 68.03 94.5358 66.7779C94.8902 66.0101 94.9256 65.0888 94.2877 63.7658Z" fill="#10427A"/>
<path d="M106.655 28.3136V17.3401H107.919V23.1635C108.639 23.7541 109.1 24.5219 109.1 25.3724C109.088 26.6481 108.096 27.7348 106.655 28.3136ZM106.655 31.7509V29.9319C107.364 30.1563 107.824 30.4752 107.824 30.8414C107.824 31.2076 107.364 31.5383 106.655 31.7509ZM101.044 30.8414C101.044 30.487 101.481 30.1681 102.166 29.9437V31.7391C101.481 31.5147 101.044 31.1958 101.044 30.8414ZM99.7211 25.3724C99.7211 24.5219 100.182 23.7659 100.902 23.1635V17.3401H102.166V28.3136C100.713 27.7348 99.7211 26.6363 99.7211 25.3724ZM104.08 17.3401V28.7152C103.643 28.6916 103.217 28.6325 102.816 28.5262V17.3401H104.08ZM104.741 29.6365C105.19 29.6484 105.615 29.6956 106.005 29.7665V31.9163C105.615 31.9872 105.202 32.0344 104.741 32.0462V29.6365ZM104.08 32.0462C103.631 32.0344 103.206 31.9754 102.816 31.9045V29.7783C103.194 29.7074 103.619 29.6602 104.08 29.6365V32.0462ZM105.993 17.3401V28.5262C105.592 28.6325 105.166 28.6916 104.729 28.7152V17.3401H105.993ZM111.521 24.1911C110.458 22.2894 110.222 20.7065 110.222 19.9033V17.3401H110.647V17.907C110.789 18.0134 110.943 18.0724 111.12 18.0724C111.628 18.0724 112.029 17.5409 112.029 16.8794C112.029 16.2179 111.616 15.6864 111.12 15.6864C110.943 15.6864 110.789 15.7454 110.647 15.8517V16.4069H110.222V14.0799H107.907V16.4069H106.655V16.3124C106.655 16.1352 106.513 15.9817 106.324 15.9817C106.135 15.9817 105.993 16.1234 105.993 16.3124V16.4069H104.729V16.3124C104.729 16.1352 104.588 15.9817 104.399 15.9817C104.222 15.9817 104.068 16.1234 104.068 16.3124V16.4069H102.804V16.3124C102.804 16.1352 102.662 15.9817 102.473 15.9817C102.284 15.9817 102.143 16.1234 102.143 16.3124V16.4069H100.879V14.0799H98.5635V16.4069H98.1383V15.8517C97.9965 15.7454 97.8429 15.6864 97.6658 15.6864C97.1578 15.6864 96.7562 16.2179 96.7562 16.8794C96.7562 17.5409 97.1697 18.0724 97.6658 18.0724C97.8429 18.0724 97.9965 18.0134 98.1383 17.907V17.3401H98.5635V19.9033C98.5635 20.7065 98.3272 22.2894 97.2641 24.1911C95.9057 26.6008 96.9334 30.3217 97.0397 30.7469C97.3468 31.9754 98.1973 34.1961 98.6698 34.9048H110.116C110.576 34.1961 111.439 31.9754 111.746 30.7469C111.864 30.3217 112.88 26.6008 111.521 24.1911Z" fill="#10427A"/>
<path d="M48.6681 39.0258L47.5342 39.1912V43.0066C47.5342 45.1446 47.7586 49.5741 49.2824 55.1731L49.5777 56.2834L50.7117 56.1417C57.7517 55.2203 70.0955 54.11 88.9004 54.11C107.705 54.11 120.037 55.2085 127.089 56.1417L128.223 56.2834L128.53 55.1731C130.042 49.5741 130.267 45.1446 130.267 43.0066V39.1912L129.145 39.0258C121.892 37.9864 109.028 36.7579 88.9123 36.7579C68.7725 36.7579 55.909 37.9982 48.6681 39.0258Z" fill="#10427A"/>
<path d="M116.306 65.8272C110.399 75.7258 101.529 83.4037 89.9762 88.6483C89.9762 88.6483 89.3738 88.92 88.9013 89.1326C88.4406 88.92 87.8382 88.6483 87.8382 88.6483C76.2622 83.4037 67.4031 75.7258 61.497 65.8272C59.2999 62.1418 57.8116 58.6217 56.7958 55.4561C56.3705 55.4915 55.9571 55.5387 55.5555 55.5742C56.595 58.8816 58.1424 62.5788 60.4457 66.4414C66.4818 76.5644 75.5299 84.4077 87.3303 89.7468C87.3303 89.7468 88.2516 90.1721 88.8895 90.4556C89.5391 90.1603 90.4605 89.7468 90.4605 89.7468C102.261 84.3959 111.309 76.5644 117.345 66.4414C119.648 62.567 121.196 58.8816 122.235 55.5742C121.834 55.5269 121.42 55.4915 120.995 55.4442C119.979 58.6217 118.491 62.1418 116.306 65.8272ZM78.1994 4.76998V3.55332C66.0093 4.13212 55.6618 5.51415 51.5039 6.12839C52.2835 7.86478 53.4529 10.4753 53.4529 10.4753V38.4229C53.8427 38.3756 54.2561 38.3402 54.6696 38.293V10.2036C54.6696 10.2036 53.8545 8.38451 53.2757 7.09698C58.2959 6.40005 67.533 5.27791 78.1994 4.76998ZM121.822 7.48679C116.152 6.75443 108.309 5.91576 99.6031 5.50233V6.71899C108.533 7.14423 116.447 8.00652 121.668 8.69162C121.515 9.03417 121.184 9.77834 121.184 9.77834V38.104C121.597 38.1394 122.011 38.1866 122.401 38.2221V10.05C122.531 9.75471 123.452 7.69939 123.452 7.69939L121.822 7.48679ZM63.1743 64.8231C61.1545 61.433 59.7606 58.1965 58.792 55.2789C58.3668 55.3143 57.9534 55.3498 57.5517 55.397C58.5558 58.4682 60.0087 61.8819 62.1349 65.461C67.9465 75.2297 76.6993 82.8131 88.1453 87.9868L88.3343 88.0695L88.8895 88.3294L89.6573 87.9986H89.6691C101.127 82.8013 109.88 75.2178 115.691 65.461C117.818 61.8819 119.27 58.48 120.274 55.397C119.861 55.3616 119.459 55.3261 119.034 55.2789C118.066 58.2083 116.672 61.433 114.652 64.8231C108.958 74.3792 100.395 81.7854 89.173 86.8765C89.173 86.8765 89.0194 86.9355 88.9249 86.9828C88.854 86.9473 88.6532 86.8647 88.6532 86.8647H88.665C77.4198 81.7854 68.856 74.3792 63.1743 64.8231ZM99.5913 3.55332V4.76998C110.258 5.27791 119.483 6.40005 124.515 7.10879C123.936 8.39632 123.121 10.2154 123.121 10.2154V38.293C123.535 38.3402 123.948 38.3756 124.338 38.4229V10.4634C124.338 10.4634 125.507 7.85295 126.287 6.11656C122.129 5.51414 111.781 4.13212 99.5913 3.55332ZM56.6186 38.0922V9.77834C56.6186 9.77834 56.276 9.02236 56.1225 8.69162C61.3553 8.01833 69.2576 7.15604 78.1876 6.71899V5.50233C69.4702 5.91576 61.6388 6.75443 55.9689 7.48679L54.3388 7.69939L55.0121 9.19955C55.0121 9.19955 55.2602 9.76653 55.3901 10.05V38.2221C55.7917 38.1748 56.2052 38.1394 56.6186 38.0922Z" fill="#FDDC04"/>
<path d="M88.9017 38.0738C68.7147 38.0738 55.8985 39.3259 48.8584 40.3417V43.0231C48.8584 45.2201 49.0946 49.4725 50.5475 54.8589C57.8711 53.8785 70.2266 52.8036 88.9017 52.8036C107.577 52.8036 119.921 53.8785 127.256 54.8589C128.709 49.4725 128.945 45.232 128.945 43.0231V40.3417C121.893 39.3377 109.089 38.0738 88.9017 38.0738Z" fill="#FDDC04"/>
<path d="M52.5547 51.9395C53.4642 51.597 53.9367 51.3844 54.0076 50.9946C54.0785 50.5575 54.1611 49.9433 54.1966 49.1637C54.362 45.4546 54.2911 43.4702 54.2793 43.2576C54.2202 42.5489 54.0903 42.4898 52.8972 42.2535L52.8736 42.0173C53.2516 42.0173 53.5942 42.0173 53.9013 41.9937C54.4446 41.9464 55.0234 41.8756 55.6967 41.7811C56.8189 44.0254 58.0828 46.4469 59.5239 48.9983C60.5397 46.376 61.4375 43.7773 62.2643 41.2495C62.8195 41.2377 63.292 41.2259 63.6936 41.2023C64.107 41.1668 64.6267 41.096 65.1937 41.0133L65.2174 41.2495C64.0598 41.6629 63.7881 41.7456 63.8471 42.3362C63.9062 42.9977 64.1779 44.238 64.5559 46.0334C64.9929 48.0297 65.2528 49.3881 65.5363 50.0968C65.678 50.463 66.1269 50.5575 67.0128 50.7701L67.0364 51.0064C66.0442 50.9946 65.3591 50.9946 64.9811 51.03C64.296 51.0891 63.481 51.1954 62.5478 51.3726L62.5242 51.1363C63.8235 50.6993 64.0479 50.6756 64.0007 50.0496C63.9062 48.892 63.3746 46.4587 62.5124 42.726C61.4847 45.4192 60.5043 48.3959 59.5475 51.6442L59.3585 51.656C57.7639 48.4904 56.2873 45.7145 54.9408 43.293C54.8581 47.4391 54.9053 49.8724 54.9644 50.593C55.0234 51.3844 55.1534 51.3607 56.4763 51.6324L56.5 51.8687C55.4841 51.8569 54.8226 51.8569 54.5273 51.8805C53.9367 51.9277 53.2989 52.0222 52.5901 52.1758L52.5547 51.9395Z" fill="#10427A"/>
<path d="M68.1708 50.7362C69.0686 50.4527 69.541 50.1456 69.6474 49.9684C69.7537 49.7913 69.7182 48.421 69.5883 45.8578C69.4584 43.2709 69.3639 41.9007 69.2339 41.7353C69.1158 41.5464 68.5961 41.3219 67.6983 41.1329L67.6865 40.8022C68.2299 40.8731 68.8205 40.8612 69.4347 40.8258C70.0017 40.8022 70.6041 40.7549 71.242 40.7195C71.9389 40.6841 72.6358 40.6604 73.3209 40.6368C74.1005 40.6014 74.8565 40.5423 75.6125 40.4124L75.7543 42.8221L75.5534 42.8339C75.2818 41.9243 75.0219 41.4282 74.8565 41.3337C74.7266 41.2629 74.0415 41.2156 72.7894 41.2747C72.1515 41.3101 71.49 41.3101 70.7577 41.3455C70.7341 42.1133 70.7695 43.3772 70.8522 45.2436L72.1397 45.1845C73.4981 45.1136 74.2659 45.0664 74.4195 44.9601C74.573 44.8538 74.8093 44.3813 75.0337 43.5426L75.2581 43.5308C75.2109 44.275 75.2109 44.8538 75.2345 45.2672C75.2581 45.6688 75.3172 46.2948 75.4117 47.1808L75.1873 47.1926C74.9156 46.3185 74.6439 45.8342 74.4667 45.7397C74.3013 45.657 73.5454 45.6806 72.1752 45.7397L70.8876 45.7987C70.8994 46.1295 70.9231 46.4602 70.9349 46.7673C71.0057 48.2557 71.1002 49.3778 71.1829 50.122C71.9271 50.1456 72.565 50.1456 73.0847 50.122C74.4903 50.0511 75.2699 49.8857 75.3526 49.8149C75.518 49.6849 75.7424 49.118 75.9669 48.0667L76.2149 48.0549L76.2622 50.6063C73.8052 50.6299 72.1397 50.7008 71.2656 50.748C70.2498 50.7953 69.2221 50.878 68.1945 50.9961L68.1708 50.7362Z" fill="#10427A"/>
<path d="M78.3641 50.2487C79.2618 49.9888 79.7461 49.6935 79.8524 49.5164C79.9587 49.3392 79.9587 47.9808 79.8997 45.4057C79.8406 42.8188 79.7815 41.4368 79.6634 41.2715C79.5453 41.0825 79.0374 40.8462 78.1396 40.6218V40.3855C79.061 40.4564 79.8288 40.4918 80.443 40.48C81.0573 40.4682 81.8014 40.3974 82.7228 40.2792L82.7346 40.5155C81.8723 40.7753 81.3526 41.0352 81.2463 41.236C81.1399 41.4132 81.1399 42.7952 81.199 45.3821C81.2226 46.6224 81.2935 48.0753 81.3762 49.7526C81.8959 49.7526 82.3566 49.7644 82.77 49.7526C84.1402 49.7172 84.8962 49.6109 85.038 49.5045C85.1797 49.41 85.4868 48.8431 85.8058 47.7682H86.0538L85.9239 50.3196C83.526 50.296 81.8723 50.3078 80.9746 50.3196C80.1832 50.3314 79.3209 50.3905 78.3759 50.4731L78.3641 50.2487Z" fill="#10427A"/>
<path d="M87.5549 50.0691C88.4645 49.8328 88.9488 49.5493 89.0669 49.3722C89.1732 49.195 89.2205 47.8366 89.2205 45.2615C89.2323 42.6747 89.2086 41.2926 89.0905 41.1154C88.9842 40.9265 88.4763 40.6666 87.5904 40.4303V40.1941C88.5117 40.2886 89.2677 40.3477 89.8937 40.3477C90.508 40.3477 91.264 40.3004 92.1735 40.2177V40.454C91.2994 40.6902 90.7797 40.9383 90.6615 41.1273C90.5552 41.3044 90.5198 42.6865 90.508 45.2615C90.4962 47.8366 90.5316 49.195 90.6379 49.3722C90.7442 49.5493 91.2403 49.8328 92.1381 50.0809V50.3171C91.2167 50.2226 90.4725 50.1636 89.8583 50.1636C89.2441 50.1636 88.4763 50.2108 87.5549 50.2935V50.0691Z" fill="#10427A"/>
<path d="M98.789 40.6815C96.6983 40.6106 95.4462 42.0871 95.3517 44.8748C95.2454 48.194 96.5093 50.084 98.6473 50.1548C100.762 50.2257 102.014 48.7492 102.096 45.9733C102.203 42.6541 100.939 40.7405 98.789 40.6815ZM102.333 49.1744C101.447 50.2139 100.112 50.7691 98.5646 50.7218C97.1589 50.6746 95.9659 50.1312 95.1036 49.1508C94.1941 48.1231 93.7334 46.7766 93.7806 45.241C93.8279 43.8589 94.2768 42.6541 95.1036 41.6973C96.025 40.6342 97.3243 40.0909 98.8835 40.1381C100.289 40.1854 101.47 40.7287 102.321 41.7091C103.242 42.7486 103.703 44.1188 103.656 45.6662C103.62 47.001 103.171 48.194 102.333 49.1744Z" fill="#10427A"/>
<path d="M108.061 45.2676L109.101 45.3267C111.014 45.4448 111.983 44.866 112.065 43.5076C112.148 42.0783 111.191 41.4523 109.16 41.3342C108.959 41.3224 108.687 41.3224 108.333 41.3342C108.227 42.7398 108.132 44.0628 108.061 45.2676ZM114.487 51.032H114.581L114.57 51.28C114.192 51.221 113.825 51.1855 113.459 51.1619C113.093 51.1383 112.751 51.1383 112.396 51.1501C111.416 49.2601 110.412 47.5119 109.42 45.9055C109.313 45.8819 109.124 45.87 108.876 45.8582C108.652 45.8464 108.356 45.8228 108.002 45.8228C107.978 46.189 107.955 46.5197 107.943 46.815C107.849 48.4333 107.837 49.4019 107.849 49.6854C107.872 50.1815 108.297 50.3469 109.36 50.7249L109.349 50.9611C108.439 50.8075 107.683 50.713 107.045 50.6776C106.573 50.654 105.805 50.654 104.777 50.6894L104.789 50.4532C105.711 50.276 106.218 50.0161 106.337 49.8508C106.455 49.6854 106.573 48.327 106.726 45.7637C106.88 43.1887 106.939 41.8067 106.833 41.6177C106.738 41.4169 106.242 41.1334 105.368 40.8499L105.38 40.6136C105.947 40.7081 106.407 40.7672 106.738 40.7908C108.073 40.8735 109.183 40.8262 110.081 40.8853C112.503 41.0271 113.672 41.9248 113.577 43.4486C113.507 44.618 112.621 45.4212 110.908 45.811C112.751 49.1184 113.459 50.9729 114.487 51.032Z" fill="#10427A"/>
<path d="M121.526 47.824C121.16 46.4892 120.747 45.0009 120.251 43.418C119.577 44.6229 118.857 45.9931 118.066 47.5287L121.526 47.824ZM114.404 51.0369C115.112 50.8715 115.526 50.7298 115.727 50.399C116.057 49.8557 117.758 46.8199 120.676 41.2092L120.96 41.2328C122.637 46.9381 123.665 50.21 123.995 51.0605C124.161 51.4858 124.598 51.6984 125.365 51.9701L125.342 52.2063C124.326 52.0173 123.57 51.911 123.098 51.8756C122.448 51.8165 121.692 51.8165 120.782 51.8165L120.806 51.5802C121.834 51.4503 122.365 51.2731 122.377 51.0605C122.401 50.8243 122.2 49.962 121.704 48.4736L117.77 48.1311C117.061 49.5249 116.695 50.3518 116.66 50.6353C116.636 50.8833 117.061 51.0841 117.959 51.3086L117.936 51.5802C117.227 51.4267 116.624 51.3204 116.152 51.2849C115.774 51.2495 115.195 51.2495 114.38 51.2731L114.404 51.0369Z" fill="#10427A"/>
<path d="M79.8532 28.9427C79.2389 29.0372 78.4357 29.1081 77.6207 29.0136C75.9079 28.8246 76.156 28.3875 74.833 28.3757C74.455 28.3757 74.1833 28.4348 73.9471 28.5056V17.225C73.9471 17.225 74.1597 17.1069 74.5141 17.0596C74.6086 17.0478 74.7031 17.036 74.8212 17.036C75.27 17.036 75.3882 17.0951 75.6598 17.2014C76.0142 17.3431 76.4985 17.5557 77.5025 17.662C78.353 17.7565 79.1799 17.6975 79.8532 17.603V28.9427ZM72.8249 28.5174C72.6005 28.4466 72.317 28.3875 71.939 28.3875C70.616 28.3993 70.8523 28.8364 69.1513 29.0254C68.3363 29.1199 67.5331 29.049 66.9188 28.9545V17.6266C67.5921 17.7211 68.419 17.7802 69.2695 17.6857C70.2853 17.5794 70.7696 17.3667 71.1122 17.225C71.3838 17.1187 71.502 17.0596 71.9508 17.0596C72.0689 17.0596 72.1634 17.0714 72.2579 17.0832C72.6123 17.1305 72.8249 17.2486 72.8249 17.2486V28.5174ZM83.8339 22.2097C84.0819 22.2216 84.2946 22.0207 84.2946 21.7491V20.8513C84.2946 20.5915 84.0937 20.3552 83.8339 20.3434L82.9716 20.2962V17.6739C82.9716 17.414 82.7708 17.1777 82.5109 17.1659L81.3533 17.1069C81.5069 17.414 81.6959 17.7329 81.8849 17.9574L81.9203 30.4901C81.4478 29.9467 80.9753 28.7183 80.9753 28.7183V16.2564C80.9753 16.2564 79.3334 16.7525 77.6207 16.5635C75.9079 16.3745 76.156 15.9375 74.833 15.9256C73.8644 15.9138 73.3919 16.3155 73.3919 16.3155C73.3919 16.3155 72.9194 15.9138 71.9508 15.9256C70.6279 15.9375 70.8641 16.3745 69.1631 16.5635C67.4622 16.7525 65.8085 16.2564 65.8085 16.2564V28.7064C65.8085 28.7064 65.3242 29.9349 64.8635 30.4783L64.8989 17.9455C65.0879 17.7211 65.2769 17.4022 65.4305 17.0951L64.2847 17.1541C64.0367 17.1659 63.824 17.4022 63.824 17.662V20.2725L62.9499 20.3198C62.7019 20.3316 62.4893 20.5678 62.4893 20.8277V21.7254C62.4893 21.9971 62.6901 22.2097 62.9499 22.1861L63.824 22.1389V27.2299L62.9499 27.2772C62.7019 27.289 62.4893 27.5252 62.4893 27.7851V28.6828C62.4893 28.9545 62.6901 29.1553 62.9499 29.1435L63.824 29.0962V31.5295C63.824 31.8012 64.0248 32.002 64.2847 31.9902L71.7973 31.5886C72.1398 31.6713 72.7304 31.7304 73.4037 31.7304C74.077 31.7304 74.6676 31.6713 75.0102 31.5886L82.5345 31.9902C82.7826 32.002 82.9952 31.8012 82.9952 31.5295V29.1317L83.8575 29.1789C84.1056 29.1907 84.3182 28.9899 84.3182 28.7183V27.8205C84.3182 27.5607 84.1174 27.3244 83.8575 27.3126L82.9952 27.2654V22.1743L83.8339 22.2097Z" fill="#10427A"/>
<path d="M7.04223 112.795C6.94774 112.842 6.79418 112.842 6.73512 113.645C6.68787 114.637 6.68787 125.209 6.68787 126.001C6.68787 126.745 6.88867 126.898 7.04223 126.898C7.34935 126.946 7.99902 126.946 8.40063 126.946C9.86534 126.946 12.9838 126.544 13.9878 125.894C15.3934 124.902 17.0117 122.859 17.0117 120.165C17.0117 117.52 16.2085 115.63 14.8973 114.437C13.5389 113.196 11.7199 112.44 8.69594 112.44C8.05808 112.452 7.3021 112.653 7.04223 112.795ZM17.0708 113.444C19.2324 114.992 20.1892 117.236 20.1892 119.421C20.1892 122.752 18.4764 124.205 17.3188 125.103C16.4684 125.847 15.0509 126.45 14.2477 126.745C14.0469 126.839 14.1414 127.194 14.354 127.69C15.358 129.627 18.6418 134.718 20.0474 136.608C21.6067 138.699 22.6697 139.951 23.721 140.99C25.3393 142.585 26.7922 143.034 27.7017 143.034C28.1034 143.034 28.3514 143.176 28.3514 143.329C28.3514 143.435 28.1506 143.577 27.749 143.731C27.3474 143.884 26.5441 143.943 25.8354 143.943C22.7642 143.943 20.7444 142.301 18.878 140.01C16.3148 136.773 12.0742 129.899 11.3773 129.048C10.8694 128.505 10.4205 128.056 9.8181 127.902C9.31017 127.749 8.61325 127.654 7.3021 127.702C7.05405 127.702 6.85324 127.902 6.79418 128.103C6.68787 128.599 6.64062 134.978 6.68787 136.974C6.73512 139.266 6.93592 141.061 7.08948 141.51C7.29029 142.112 7.64465 142.609 9.46373 142.904C10.0189 142.998 10.2197 143.105 10.2197 143.306C10.2197 143.506 9.8181 143.66 9.21567 143.66C8.15258 143.66 7.19579 143.412 5.48303 143.412C3.6167 143.412 2.15199 143.66 1.1952 143.66C0.699092 143.636 0.344727 143.542 0.344727 143.294C0.344727 143.093 0.699092 142.998 1.34876 142.845C2.90797 142.55 3.46314 142.101 3.6167 140.01C3.77026 137.175 3.86476 133.431 3.86476 126.213C3.86476 119.232 3.66395 116.598 3.56945 115.004C3.46314 113.562 3.36864 112.866 1.25426 112.511C0.805402 112.417 0.403787 112.31 0.403787 112.062C0.403787 111.909 0.651843 111.767 1.31333 111.767C2.02206 111.767 3.2269 111.968 5.04597 111.968C6.9123 111.968 8.77862 111.72 10.4323 111.72C13.4444 111.708 15.4053 112.251 17.0708 113.444Z" fill="#10427A"/>
<path d="M37.9796 139.706C39.5978 138.454 41.5232 135.595 41.5232 131.319C41.5232 128.213 40.6019 125.401 38.5938 123.417C37.3653 122.165 35.4517 120.948 32.6995 120.948C30.8686 120.948 28.8133 122.023 27.5494 123.37C25.7185 125.271 25.1515 128.035 25.1515 130.847C25.1515 133.221 26.1556 136.032 27.6439 137.721C29.7465 140.178 31.8845 140.922 34.117 140.922C35.5344 140.911 36.8456 140.521 37.9796 139.706ZM22.293 130.717C22.293 127.74 23.5214 124.799 26.7934 122.425C28.6715 120.995 30.9041 120.31 33.3019 120.31C39.5506 120.31 44.2754 125.153 44.2754 131.118C44.2754 136.221 40.6491 139.588 37.9796 140.663C36.5385 141.265 35.0501 141.655 33.4319 141.655C27.1478 141.643 22.293 136.552 22.293 130.717Z" fill="#10427A"/>
<path d="M64.2364 121.503C64.4136 121.55 64.6734 121.846 64.6734 122.07C64.5908 122.85 64.7207 124.492 64.7207 124.799C64.7679 125.319 64.5908 125.661 64.4608 125.661C64.2836 125.661 64.2482 125.448 64.1537 125.141C63.8466 123.972 63.4095 123.11 62.3228 122.33C61.2361 121.55 59.8305 120.901 57.2081 120.901C54.7158 120.901 52.4478 121.976 51.0422 123.405C49.6011 124.87 48.4671 127.634 48.4671 130.799C48.4671 133.823 49.9082 136.682 51.3966 138.194C53.1448 139.966 55.6844 140.828 57.7279 140.828C59.736 140.828 60.7872 140.521 61.744 139.918C63.0079 139.103 63.9765 137.969 64.4963 136.682C64.6734 136.245 64.7561 136.079 64.9333 136.079C65.0633 136.079 65.1105 136.422 65.1105 136.729C65.1105 137.379 64.6735 138.584 64.5908 138.891C64.5081 139.198 64.3309 139.753 64.0592 139.93C61.9685 141.052 60.3502 141.655 57.2908 141.655C53.003 141.655 50.7351 140.403 48.5498 138.454C47.026 137.107 45.585 134.13 45.585 131.059C45.585 127.433 47.2859 124.787 49.5184 122.932C51.3966 121.373 54.2787 120.298 57.3853 120.298C60.3974 120.298 62.6654 120.995 64.2364 121.503Z" fill="#10427A"/>
<path d="M68.5838 123.79C68.5838 122.408 68.3711 121.711 66.9182 121.451C66.4812 121.369 66.1386 121.239 66.1386 121.062C66.1386 120.896 66.5757 120.802 66.8828 120.802C67.4498 120.802 68.5838 120.932 69.6823 120.932C70.5564 120.932 72.2573 120.802 72.6944 120.802C73.0842 120.802 73.3913 120.849 73.3913 121.014C73.3913 121.227 72.9543 121.404 72.6944 121.451C71.5604 121.664 71.2061 122.101 71.1588 123.141C71.1588 123.826 71.0761 129.188 71.1116 129.578C71.1588 129.885 71.1942 130.181 71.4187 130.181H80.5495C83.5262 130.181 83.8333 130.181 84.0459 130.133C84.3058 130.086 84.353 129.968 84.4003 129.744C84.4829 129.271 84.4475 125.125 84.4003 124.003C84.3058 122.148 84.0105 121.664 82.782 121.499C82.3922 121.416 81.9551 121.286 81.9551 121.109C81.9551 120.896 82.3095 120.802 82.782 120.802C84.2703 120.802 84.4003 120.932 85.7941 120.932C86.8808 120.932 87.625 120.802 88.4637 120.802C89.0779 120.802 89.3378 120.884 89.3378 121.062C89.3378 121.191 89.0779 121.369 88.6408 121.404C87.1171 121.617 86.8926 122.314 86.8926 123.601C86.8926 124.416 86.8454 129.306 86.8926 131.515C86.9399 133.677 86.9753 136.878 86.9753 137.87C86.9753 139.689 87.1525 140.079 88.9007 140.469C89.3378 140.552 89.5976 140.634 89.5976 140.859C89.5976 141.036 89.2905 141.119 88.8535 141.119C88.2865 141.119 86.3611 140.989 85.6642 140.989C84.7428 140.989 83.349 141.119 82.9119 141.119C82.2977 141.119 82.0378 141.036 82.0378 140.859C82.0378 140.646 82.3922 140.552 82.6875 140.469C83.9986 140.256 84.2585 140.079 84.3885 138.744C84.4357 138.177 84.4357 135.543 84.4357 132.047C84.4357 131.657 84.1758 131.315 84.0813 131.315C83.4671 131.232 81.459 131.185 76.9586 131.185H71.3242C71.147 131.185 71.0171 131.397 71.0171 131.834C71.0171 138.614 71.0997 139.004 71.1942 139.347C71.3242 139.996 71.714 140.174 72.718 140.422C73.2023 140.552 73.4622 140.682 73.4622 140.859C73.4622 141.119 72.8952 141.119 72.6708 141.119C72.0211 141.119 70.6154 140.989 69.5642 140.989C68.6428 140.989 67.4262 141.119 66.8946 141.119C66.5402 141.119 66.0205 141.071 66.0205 140.823C66.0205 140.693 66.4576 140.516 66.8119 140.481C68.3003 140.174 68.3475 139.784 68.4302 138.874C68.5129 137.965 68.5601 135.85 68.5601 130.842L68.5838 123.79Z" fill="#10427A"/>
<path d="M91.0756 121.122C91.0756 120.944 91.3354 120.814 91.6071 120.814C92.4812 120.814 93.6624 120.944 94.4893 120.944C96.3674 120.944 100.431 120.862 101.836 120.862C103.1 120.862 104.199 120.814 104.506 120.814C104.683 120.814 104.813 121.122 104.86 121.334C104.908 121.677 105.038 123.189 105.12 123.803C105.168 124.145 105.073 124.405 104.896 124.405C104.766 124.405 104.636 124.193 104.506 123.886C103.845 122.421 103.278 121.901 102.758 121.807C102.191 121.724 102.061 121.677 96.2966 121.677C96.0721 121.677 95.9422 121.759 95.9422 122.149C95.9422 123.921 95.895 128.847 95.9422 129.803C95.9422 129.981 96.0249 130.146 96.2021 130.146H99.9583C101.707 130.146 102.451 129.981 102.805 129.803C103.018 129.674 103.289 129.414 103.632 128.551C103.715 128.292 103.845 128.032 104.022 128.032C104.152 128.032 104.199 128.209 104.199 128.634C104.199 128.811 104.022 130.099 103.974 130.583C103.927 131.103 103.927 132.272 103.974 132.532C104.022 132.839 103.927 133.182 103.797 133.182C103.62 133.182 103.537 132.969 103.313 132.449C103.089 131.93 102.876 131.245 102.356 131.15C101.825 131.02 100.821 130.937 96.1076 130.937C96.0249 130.937 95.8477 131.067 95.8477 131.374C95.8005 132.414 95.9304 137.682 95.9776 138.332C96.0603 139.537 96.1076 140.104 96.8517 140.186C97.2888 140.234 98.5527 140.316 100.395 140.316C103.585 140.316 103.892 140.139 104.412 139.761C104.766 139.454 105.238 138.852 105.9 137.729C106.077 137.387 106.254 137.162 106.384 137.162C106.561 137.162 106.597 137.47 106.384 138.072C106.254 138.415 105.723 140.234 105.64 140.659C105.593 140.871 105.286 141.131 105.026 141.131C101.317 141.131 97.8203 141.001 94.6665 141.001C93.5325 141.001 92.0442 141.131 91.6544 141.131C91.2528 141.131 90.7803 141.131 90.7803 140.871C90.7803 140.694 91.1346 140.564 91.4772 140.529C92.6584 140.316 93.1782 139.962 93.2726 138.674C93.4026 136.607 93.4026 132.804 93.4026 129.555V123.815C93.4026 122.09 92.8828 121.736 91.7016 121.476C91.3118 121.393 91.1346 121.263 91.1346 121.086L91.0756 121.122Z" fill="#10427A"/>
<path d="M111.215 124.703C111.215 126.393 112.313 127.597 113.4 128.377C114.664 129.204 115.798 129.936 117.074 130.669C118.385 131.531 120.523 133.043 120.523 135.724C120.523 139.398 117.109 141.642 113.613 141.642C112.042 141.642 110.116 141.252 108.982 140.697C108.545 140.567 108.462 140 108.332 139.492C108.285 138.925 108.155 138.24 108.073 137.153C108.025 136.764 108.073 136.421 108.25 136.421C108.427 136.421 108.64 136.728 108.817 137.248C109.171 138.417 109.691 139.327 110.482 139.929C111.522 140.733 112.916 140.992 113.742 140.992C116.447 140.992 118.03 139.268 118.03 137.024C118.03 134.685 116.719 133.527 113.79 131.791C111.297 130.326 109.029 128.554 109.029 125.696C109.029 124.136 109.774 122.542 111.132 121.585C112.36 120.675 114.061 120.286 115.55 120.286C117.251 120.286 118.692 120.805 119.129 120.983C119.389 121.065 119.519 121.242 119.566 121.42C119.566 122.329 119.743 123.357 119.826 123.841C119.908 124.314 119.861 124.621 119.696 124.621C119.519 124.621 119.389 124.408 119.259 123.971C118.904 123.014 118.467 122.329 117.818 121.857C117.026 121.207 115.975 120.912 114.971 120.912C113.353 120.9 111.215 121.809 111.215 124.703Z" fill="#10427A"/>
<path d="M136.953 120.942C138.524 120.942 139.138 120.859 139.705 120.634C139.918 120.504 140.142 120.375 140.225 120.457C140.32 120.54 140.32 120.67 140.272 120.847C140.142 121.107 140.012 122.536 140.06 124.001C140.06 124.473 139.977 124.816 139.8 124.816C139.67 124.816 139.54 124.509 139.493 124.296C139.41 123.859 139.056 122.654 138.831 122.347C138.571 122.005 138.477 121.827 137.39 121.827H132.275C132.098 121.827 132.016 122.217 132.016 122.394L131.933 133.781C131.933 135.683 131.933 137.975 132.063 138.967C132.193 139.924 132.677 140.266 133.811 140.479C134.295 140.562 134.555 140.739 134.555 140.916C134.555 141.093 134.035 141.176 133.728 141.176C132.677 141.176 131.933 140.999 130.622 140.999C128.826 140.999 128.047 141.176 127.515 141.176C126.901 141.176 126.688 141.046 126.688 140.916C126.688 140.739 126.995 140.609 127.432 140.526C129.051 140.313 129.263 139.924 129.311 138.282C129.441 135.045 129.523 122.772 129.523 122.418C129.523 122.241 129.476 121.898 129.311 121.851H126.558C125.117 121.851 124.066 121.898 123.629 121.934C122.967 122.016 122.448 122.453 122.105 124.178C122.011 124.568 121.893 124.78 121.751 124.78C121.574 124.78 121.491 124.521 121.491 124.131C121.491 123.446 121.834 121.969 121.834 120.847C121.834 120.634 121.881 120.457 121.963 120.375C122.093 120.292 122.188 120.375 122.353 120.552C122.483 120.682 122.967 120.764 123.44 120.812C123.924 120.859 127.456 120.942 131.047 120.942H136.953Z" fill="#10427A"/>
<path d="M141.678 121.122C141.678 120.944 141.938 120.814 142.198 120.814C143.072 120.814 144.253 120.944 145.08 120.944C146.958 120.944 151.021 120.862 152.427 120.862C153.691 120.862 154.789 120.814 155.096 120.814C155.274 120.814 155.404 121.122 155.451 121.334C155.498 121.677 155.628 123.189 155.711 123.803C155.758 124.145 155.663 124.405 155.498 124.405C155.368 124.405 155.238 124.193 155.108 123.886C154.459 122.421 153.88 121.901 153.36 121.807C152.793 121.724 152.663 121.677 146.887 121.677C146.674 121.677 146.544 121.759 146.544 122.149C146.544 123.921 146.497 128.847 146.544 129.803C146.544 129.981 146.627 130.146 146.804 130.146H150.561C152.309 130.146 153.053 129.981 153.407 129.803C153.62 129.674 153.892 129.414 154.234 128.551C154.317 128.292 154.447 128.032 154.624 128.032C154.754 128.032 154.801 128.209 154.801 128.634C154.801 128.811 154.624 130.099 154.589 130.583C154.541 131.103 154.541 132.272 154.589 132.532C154.636 132.839 154.541 133.182 154.411 133.182C154.234 133.182 154.151 132.969 153.927 132.449C153.714 131.93 153.49 131.245 152.97 131.15C152.45 131.02 151.435 130.937 146.722 130.937C146.639 130.937 146.462 131.067 146.462 131.374C146.414 132.414 146.544 137.682 146.592 138.332C146.674 139.537 146.722 140.104 147.466 140.186C147.903 140.234 149.167 140.316 151.009 140.316C154.199 140.316 154.506 140.139 155.026 139.761C155.368 139.454 155.852 138.852 156.514 137.729C156.691 137.387 156.868 137.162 156.998 137.162C157.175 137.162 157.211 137.47 156.998 138.072C156.868 138.415 156.349 140.234 156.254 140.659C156.207 140.871 155.9 141.131 155.64 141.131C151.931 141.131 148.423 141.001 145.28 141.001C144.147 141.001 142.658 141.131 142.268 141.131C141.879 141.131 141.394 141.131 141.394 140.871C141.394 140.694 141.737 140.564 142.091 140.529C143.272 140.316 143.792 139.962 143.887 138.674C144.017 136.607 144.017 132.804 144.017 129.555V123.815C144.017 122.09 143.497 121.736 142.316 121.476C141.926 121.393 141.749 121.263 141.749 121.086L141.678 121.122Z" fill="#10427A"/>
<path d="M163.117 121.726C163.034 121.773 162.904 121.986 162.857 122.588C162.81 123.108 162.727 129.498 162.727 130.018C162.727 130.195 162.81 130.668 163.034 130.668C163.554 130.715 164.263 130.715 164.96 130.715C166.271 130.668 167.322 130.325 168.066 129.9C169.035 129.298 169.992 128.128 169.992 126.356C169.992 125.057 169.555 123.982 168.811 123.12C167.889 122.128 166.543 121.478 164.83 121.478C164.475 121.466 163.471 121.549 163.117 121.726ZM162.727 135.983C162.727 138.275 162.857 139.007 162.904 139.267C162.952 139.952 163.471 140.307 164.428 140.484C164.735 140.531 165.125 140.649 165.125 140.826C165.125 141.004 164.735 141.122 164.334 141.122C163.59 141.122 162.278 140.992 161.062 140.992C159.833 140.992 159.184 141.122 158.534 141.122C158.014 141.122 157.79 140.992 157.79 140.862C157.79 140.685 158.05 140.555 158.534 140.472C159.751 140.259 160.105 139.905 160.199 138.747C160.329 136.928 160.329 134.684 160.329 130.065C160.329 125.66 160.329 123.923 160.282 123.061C160.235 122.104 159.94 121.632 158.581 121.419C158.227 121.372 157.92 121.206 157.92 121.076C157.92 120.911 158.31 120.817 158.581 120.817C159.066 120.817 159.892 120.946 161.074 120.946C162.597 120.946 164.086 120.769 165.621 120.769C167.889 120.769 169.248 121.206 170.382 121.974C171.823 122.884 172.484 124.313 172.484 125.695C172.484 128.282 170.689 129.841 168.503 130.538C168.244 130.621 168.244 130.751 168.421 131.105C169.212 132.534 170.913 134.956 172.272 136.728C173.323 138.11 174.067 138.806 174.717 139.456C175.638 140.318 176.689 140.661 177.422 140.661C177.811 140.661 177.729 140.921 177.422 141.098C177.115 141.275 176.595 141.358 175.756 141.358C173.488 141.358 172.39 140.366 170.949 138.854C169.248 137.035 166.791 133.196 166.058 132.203C165.704 131.814 165.054 131.554 164.617 131.471C164.31 131.424 163.566 131.388 163.046 131.388C162.869 131.388 162.739 131.696 162.739 131.991L162.727 135.983Z" fill="#10427A"/>
<path d="M139.493 111.249C138.902 112.205 138.689 113.245 138.689 113.871C138.689 114.332 138.89 114.662 139.339 114.662C139.564 114.662 139.788 114.532 140.142 114.024C140.556 113.446 141.052 112.028 141.052 111.308C141.052 110.906 140.934 110.469 140.449 110.469C140.237 110.469 139.883 110.611 139.493 111.249ZM141.961 111.697C141.961 112.855 141.406 114.19 140.497 114.816C140.131 115.064 139.694 115.253 139.256 115.253C138.264 115.253 137.709 114.213 137.721 113.339C137.733 112.182 138.382 110.977 139.138 110.398C139.516 110.115 140.178 109.926 140.449 109.926C141.442 109.926 141.961 110.812 141.961 111.697Z" fill="#10427A"/>
<path d="M146.604 110.058C146.84 110.046 146.888 110.117 146.888 110.188C146.888 110.294 146.77 110.554 146.604 110.589C146.486 110.613 145.907 110.636 145.659 110.648C145.588 110.648 145.376 110.707 145.34 110.849C144.762 113.566 144.384 115.007 144.135 115.916C143.876 116.85 143.545 117.251 142.836 117.688C142.269 118.031 141.856 118.149 141.56 118.149C141.265 118.149 140.71 117.913 140.71 117.511C140.71 117.275 140.828 116.991 140.958 116.92C141.017 116.897 141.312 116.826 141.371 116.885C141.667 117.169 142.021 117.417 142.257 117.417C142.553 117.417 142.801 117.334 143.049 116.353C143.403 115.007 144.218 111.31 144.313 110.825C144.313 110.778 144.289 110.684 144.23 110.684L143.439 110.707C143.391 110.707 143.297 110.613 143.297 110.554C143.297 110.365 143.509 110.164 143.557 110.164C143.651 110.152 144.147 110.128 144.348 110.117C144.431 110.117 144.49 109.999 144.525 109.975C144.856 108.876 145.47 107.672 146.321 107.128C146.758 106.845 147.195 106.75 147.407 106.75C148.223 106.75 148.565 107.187 148.565 107.636C148.565 107.754 148.518 108.026 148.305 108.191C148.211 108.262 148.045 108.309 147.963 108.309C147.904 108.309 147.738 108.238 147.726 108.132C147.667 107.612 147.467 107.294 147.006 107.294C146.864 107.294 146.604 107.412 146.356 107.754C146.12 108.097 145.777 108.971 145.553 109.999C145.541 110.046 145.624 110.105 145.636 110.105L146.604 110.058Z" fill="#10427A"/>
<path d="M33.0893 107.482C33.6917 107.482 34.0224 107.576 34.8256 107.576C35.4635 107.576 35.8061 107.541 36.3022 107.541C36.7156 107.541 36.8692 107.659 36.8692 107.754C36.8692 107.895 36.7865 108.002 36.3376 108.108C35.7706 108.226 35.4635 108.344 35.4635 109.088C35.4399 110.199 35.4635 111.569 35.4871 112.809C35.5108 114.073 36.0777 114.912 36.3849 115.172C36.751 115.443 37.4361 115.739 38.0976 115.739C39.3497 115.739 40.401 115.408 40.6136 113.069C40.7081 111.663 40.6963 109.419 40.6963 109.195C40.6372 108.569 40.5427 108.226 39.6214 108.061C39.4088 108.025 39.208 107.907 39.208 107.765C39.208 107.588 39.456 107.553 39.7159 107.553C40.2002 107.553 40.1411 107.588 40.6372 107.588C41.4168 107.588 42.102 107.494 42.5272 107.494C42.8225 107.494 42.9761 107.635 42.9761 107.695C42.9761 107.884 42.7752 107.966 42.5272 108.025C41.8067 108.202 41.594 108.439 41.5704 109.23C41.5468 109.773 41.4759 110.825 41.4287 111.994C41.3932 113.612 41.0625 115.113 40.023 115.928C39.456 116.4 38.7 116.684 37.6606 116.684C36.5857 116.684 35.7116 116.353 35.1682 115.88C34.3532 115.195 33.9161 114.227 33.9161 111.841C33.9161 111.309 33.8925 109.088 33.8571 108.746C33.8334 108.545 33.7744 108.202 32.9948 108.025C32.7585 107.966 32.5459 107.813 32.5459 107.718C32.5695 107.541 32.7821 107.482 33.0893 107.482Z" fill="#10427A"/>
<path d="M44.8049 107.506C45.2538 107.506 46.5531 107.624 47.002 107.624C47.1556 107.624 47.2501 107.706 47.3918 107.872C47.758 108.344 48.195 108.77 48.703 109.348C49.2345 109.951 51.7623 112.703 52.7545 113.754C52.7782 113.778 52.8963 113.79 52.8963 113.672C52.9199 112.597 53.0144 110.045 52.9199 109.112C52.8609 108.545 52.6482 108.238 51.7151 108.025C51.5615 107.966 51.3016 107.884 51.3016 107.718C51.3016 107.506 51.7151 107.506 51.7741 107.506C52.4356 107.506 52.9435 107.588 53.4278 107.588C53.8176 107.588 54.3019 107.506 54.7981 107.506C54.987 107.506 55.2115 107.588 55.2115 107.718C55.2115 107.86 55.117 107.907 54.7981 108.025C54.0421 108.238 53.8767 108.498 53.8058 109.254C53.7231 109.998 53.6286 112.49 53.6286 113.624C53.6286 114.711 53.6877 115.999 53.6877 116.14C53.6877 116.447 53.605 116.672 53.4397 116.672C53.2979 116.672 53.0144 116.518 52.8609 116.377C52.5301 115.987 51.7741 114.959 50.6992 113.802C49.8015 112.821 48.4313 111.156 47.2855 109.939C47.2501 109.88 47.1083 109.88 47.1083 110.022C47.0847 110.683 46.9902 113.506 47.0847 114.794C47.1438 115.42 47.5926 115.691 48.1714 115.88C48.384 115.963 48.5258 116.034 48.5258 116.176C48.5258 116.377 48.2541 116.424 48.0769 116.424C48.0179 116.424 47.4154 116.365 46.8721 116.365C46.3878 116.365 45.5609 116.483 45.1357 116.483C44.8876 116.483 44.6632 116.424 44.6632 116.235C44.6632 116.14 44.7459 116.058 45.1121 115.963C46.0452 115.727 46.1633 115.384 46.2224 114.888C46.2578 114.404 46.376 112.573 46.376 110.848C46.376 109.927 46.3523 109.407 46.3405 109.254C46.3169 109.1 46.0334 108.616 45.6436 108.321C45.4664 108.179 45.2538 108.084 44.8404 108.014C44.486 107.954 44.3325 107.86 44.3325 107.706C44.3206 107.624 44.5569 107.506 44.8049 107.506Z" fill="#10427A"/>
<path d="M57.7284 107.519C57.8819 107.543 59.2522 107.578 59.8191 107.578C60.4216 107.578 61.2839 107.519 61.7091 107.46C61.8508 107.436 62.1343 107.578 62.1343 107.673C62.1343 107.814 61.8745 107.98 61.65 108.027C60.7169 108.299 60.6342 108.452 60.5988 109.161C60.5633 109.586 60.5633 110.59 60.5633 111.854C60.5633 112.964 60.5633 113.957 60.5869 114.37C60.6224 115.48 60.7641 115.658 61.6737 115.87C61.9099 115.929 62.1225 116.083 62.1225 116.26C62.1225 116.402 61.9217 116.437 61.7327 116.437C61.1894 116.437 60.6578 116.378 59.8191 116.378C59.2522 116.378 58.2245 116.473 57.8465 116.473C57.5512 116.473 57.374 116.39 57.374 116.26C57.374 116.083 57.6693 115.953 57.8465 115.894C58.7797 115.658 58.9569 115.445 58.9923 114.701C59.0159 114.346 59.0277 113.744 59.0277 113.106C59.0277 111.063 59.0277 109.692 59.0041 109.385C58.945 108.547 58.6143 108.299 57.8583 108.074C57.504 107.956 57.4449 107.826 57.4449 107.708C57.4567 107.625 57.5158 107.507 57.7284 107.519Z" fill="#10427A"/>
<path d="M64.614 107.479C64.9802 107.479 65.7598 107.574 66.3859 107.574C66.9765 107.574 67.5317 107.515 67.9805 107.515C68.3703 107.515 68.4884 107.633 68.4884 107.751C68.4884 107.869 68.3467 107.963 68.0396 108.058C67.2836 108.211 67.319 108.542 67.4962 108.991C67.7443 109.617 68.0396 110.409 68.453 111.413C68.9019 112.405 69.3744 113.716 69.5988 113.964C69.6815 114.047 69.7523 114.141 69.835 113.929C70.0713 113.385 71.3588 110.22 71.6659 109.334C71.9612 108.46 71.914 108.247 71.1344 108.046C70.9572 107.987 70.7209 107.857 70.7209 107.739C70.7209 107.68 70.8745 107.526 71.1934 107.526C71.725 107.526 71.973 107.585 72.4573 107.585C73.1424 107.585 73.7449 107.491 74.052 107.491C74.2646 107.491 74.4772 107.55 74.4772 107.692C74.4772 107.881 74.241 107.963 73.9693 108.046C73.3433 108.2 72.9771 108.519 72.4928 109.428C72.0439 110.231 71.536 111.578 70.9099 112.96C69.9768 115.027 69.6579 116.019 69.5634 116.256C69.4807 116.492 69.209 116.787 69.0554 116.787C68.9137 116.787 68.8074 116.574 68.7601 116.397C68.7247 116.244 68.4294 115.252 68.0396 114.354C67.5907 113.326 66.2205 110.066 65.6417 108.908C65.4055 108.483 65.1338 108.188 64.4487 108.034C64.2715 107.975 64.0234 107.881 64.0234 107.739C64.0471 107.515 64.3424 107.479 64.614 107.479Z" fill="#10427A"/>
<path d="M80.1829 111.557C81.0216 111.557 81.1161 111.462 81.3878 110.801C81.4823 110.624 81.624 110.411 81.7539 110.411C81.9075 110.411 81.9311 110.6 81.9311 110.86C81.9311 111.002 81.8721 111.25 81.8721 111.758C81.8721 112.325 81.9311 112.384 81.9311 112.785C81.9311 113.211 81.813 113.329 81.6594 113.329C81.5413 113.329 81.4468 113.175 81.3523 112.939C81.1751 112.549 81.1043 112.372 80.9271 112.301C80.6908 112.218 79.5451 112.183 79.2261 112.218C79.1671 112.218 79.0726 112.348 79.0253 112.49C78.9663 112.844 78.9426 114.805 79.0608 115.278C79.0844 115.36 79.3088 115.549 79.3915 115.585C79.5096 115.668 80.112 115.798 80.5609 115.798C81.0098 115.798 81.5531 115.762 81.813 115.679C82.4154 115.502 82.6517 115.408 83.2186 114.534C83.3722 114.286 83.4903 114.144 83.6084 114.144C83.8093 114.144 83.8093 114.475 83.8093 114.569C83.8093 114.876 83.4194 116.093 83.2777 116.282C83.195 116.424 83.0769 116.459 82.6517 116.459C80.8208 116.459 80.8444 116.364 78.163 116.364C77.537 116.364 76.8755 116.459 76.403 116.459C76.155 116.459 75.8242 116.4 75.8242 116.211C75.8242 116.034 76.0605 115.939 76.2731 115.88C77.3598 115.632 77.4071 115.396 77.4661 114.711C77.5016 114.191 77.5252 112.915 77.5252 111.651C77.5252 110.754 77.5252 109.761 77.4897 108.923C77.4661 108.509 77.348 108.238 76.5329 108.049C76.2967 107.99 76.0605 107.895 76.0605 107.718C76.0605 107.576 76.2731 107.505 76.592 107.505C76.9464 107.505 77.5724 107.588 78.3048 107.588C82.0492 107.588 82.1201 107.612 82.5926 107.505C82.7107 107.482 82.8288 107.6 82.8288 107.683C82.8288 108.25 82.9706 109.065 82.9706 109.336C82.9706 109.572 82.8288 109.691 82.7816 109.691C82.6871 109.691 82.5335 109.608 82.3682 109.301C82.0138 108.58 81.7894 108.332 81.1751 108.25C80.9035 108.226 80.6908 108.167 79.2498 108.167C79.1671 108.167 79.0962 108.344 79.0726 108.415C79.0135 108.71 78.9899 110.671 79.0371 111.285C79.0371 111.38 79.1198 111.486 79.2734 111.521C79.5805 111.557 80.0175 111.557 80.1829 111.557Z" fill="#10427A"/>
<path d="M88.8643 108.143C88.7698 108.178 88.6753 108.297 88.6753 108.45C88.6753 108.639 88.6162 111.38 88.6162 111.545C88.6162 111.663 88.6989 111.758 88.8052 111.758C89.6675 111.758 90.6597 111.604 90.9078 111.427C91.2031 111.214 91.7228 110.706 91.7228 109.927C91.7228 109.112 91.0968 108.037 89.4076 108.037C89.2068 108.049 88.9942 108.084 88.8643 108.143ZM86.112 107.564H87.1988C87.6712 107.564 88.4272 107.482 90.0455 107.482C91.3094 107.482 92.1717 107.777 92.5851 108.202C93.0694 108.651 93.282 109.159 93.282 109.738C93.282 111.108 92.1953 111.71 91.6047 111.876C91.5693 111.899 91.5102 111.97 91.522 111.994C91.9118 112.738 92.6914 114.002 93.4946 114.9C93.9435 115.384 94.5696 115.868 95.1129 115.975C95.4082 116.034 95.4673 116.069 95.4673 116.246C95.4673 116.482 95.0184 116.601 94.2979 116.601C93.4947 116.601 92.7741 116.329 91.9354 115.396C91.5811 115.006 90.4944 113.246 90.1754 112.785C89.9982 112.514 89.4313 112.254 88.9824 112.254C88.8997 112.254 88.8052 112.277 88.6753 112.395C88.6398 112.431 88.5926 112.49 88.5926 112.549C88.5926 112.962 88.6162 113.99 88.6516 115.041C88.6753 115.62 89.006 115.703 89.5139 115.856C89.6675 115.892 89.9037 115.998 89.9037 116.152C89.9037 116.388 89.573 116.423 89.3722 116.423C88.7462 116.423 88.3327 116.364 87.8484 116.364C87.246 116.364 86.6436 116.506 86.0294 116.506C85.6986 116.506 85.4978 116.412 85.4978 116.27C85.4978 116.152 85.6514 115.998 85.9821 115.915C86.8562 115.703 86.9979 115.526 87.0334 114.663C87.057 114.274 87.1279 112.584 87.1279 110.742C87.1279 109.903 87.1515 109.419 87.1043 108.946C87.0688 108.533 87.0452 108.226 86.0648 108.072C85.7695 108.013 85.5805 107.895 85.5805 107.765C85.6277 107.635 85.8522 107.564 86.112 107.564Z" fill="#10427A"/>
<path d="M102.746 107.576C102.888 107.6 102.947 107.825 102.947 108.049C102.947 108.616 102.97 109.065 102.923 109.313C102.864 109.679 102.71 109.738 102.651 109.738C102.474 109.738 102.403 109.502 102.344 109.266C102.191 108.699 101.931 108.392 101.683 108.179C101.435 107.966 100.986 107.789 100.513 107.789C99.5447 107.789 98.8714 108.474 98.8714 109.313C98.8714 109.974 99.4148 110.506 100.076 110.872C100.702 111.226 101.222 111.475 101.789 111.805C102.604 112.278 103.277 112.998 103.277 114.085C103.277 114.983 102.675 115.727 102.108 116.069C101.695 116.341 100.797 116.672 99.9463 116.672C98.7769 116.672 97.9383 116.4 97.4894 116.069C97.3359 115.975 97.2886 115.774 97.2768 115.656C97.2532 115.42 97.0996 114.487 97.0996 114.191C97.0996 113.825 97.2414 113.66 97.3713 113.66C97.5485 113.66 97.6075 113.872 97.6784 114.085C97.7729 114.333 97.9737 114.746 98.1273 115.006C98.6116 115.644 99.2967 116.117 100.159 116.117C101.246 116.117 101.777 115.337 101.777 114.676C101.777 113.92 101.364 113.506 100.643 113.057C100.053 112.703 99.5329 112.431 99.1077 112.16C98.4108 111.711 97.513 110.955 97.513 109.785C97.513 108.321 98.7179 107.258 100.667 107.258C101.647 107.269 102.191 107.506 102.746 107.576Z" fill="#10427A"/>
<path d="M106.443 107.519C106.597 107.543 107.967 107.578 108.534 107.578C109.136 107.578 109.999 107.519 110.424 107.46C110.566 107.436 110.849 107.578 110.849 107.673C110.849 107.814 110.601 107.98 110.365 108.027C109.432 108.299 109.349 108.452 109.314 109.161C109.278 109.586 109.278 110.59 109.278 111.854C109.278 112.964 109.278 113.957 109.302 114.37C109.337 115.48 109.479 115.658 110.388 115.87C110.625 115.929 110.837 116.083 110.837 116.26C110.837 116.402 110.637 116.437 110.448 116.437C109.904 116.437 109.373 116.378 108.534 116.378C107.967 116.378 106.939 116.473 106.561 116.473C106.266 116.473 106.089 116.39 106.089 116.26C106.089 116.083 106.384 115.953 106.561 115.894C107.495 115.658 107.672 115.445 107.707 114.701C107.731 114.346 107.743 113.744 107.743 113.106C107.743 111.063 107.743 109.692 107.719 109.385C107.66 108.547 107.329 108.299 106.573 108.074C106.219 107.956 106.16 107.826 106.16 107.708C106.172 107.625 106.231 107.507 106.443 107.519Z" fill="#10427A"/>
<path d="M119.365 107.575C121.574 107.575 121.74 107.433 122.236 107.126C122.318 107.091 122.531 107.185 122.531 107.421C122.496 108.295 122.59 109.099 122.59 109.311C122.59 109.583 122.413 109.736 122.318 109.736C122.177 109.736 122.07 109.595 122.011 109.382C121.657 108.366 121.35 108.307 120.936 108.295C120.523 108.272 119.436 108.295 118.81 108.354C118.727 108.354 118.668 108.532 118.657 108.626C118.621 108.921 118.621 111.083 118.621 113.068C118.621 114.142 118.657 114.78 118.751 115.111C118.869 115.56 119.046 115.643 119.838 115.855C120.192 115.938 120.322 116.056 120.322 116.186C120.322 116.328 120.05 116.434 119.791 116.434C118.976 116.434 118.775 116.351 117.842 116.351C117.334 116.351 116.282 116.446 115.798 116.446C115.526 116.446 115.314 116.328 115.314 116.174C115.314 116.021 115.609 115.926 115.857 115.867C116.944 115.595 116.967 115.359 117.003 114.603C117.062 112.89 117.121 110.859 117.121 108.603C117.121 108.567 117.038 108.39 116.932 108.366C116.578 108.307 115.373 108.213 114.959 108.248C114.593 108.284 114.322 108.461 113.991 108.992C113.755 109.347 113.695 109.524 113.542 109.524C113.388 109.524 113.306 109.288 113.306 109.134C113.329 108.768 113.542 107.847 113.542 107.374C113.542 107.138 113.778 107.02 113.837 107.02C113.979 107.02 114.109 107.173 114.192 107.256C114.369 107.409 114.782 107.563 116.826 107.563L119.365 107.575Z" fill="#10427A"/>
<path d="M124.917 107.484C125.307 107.484 126.263 107.578 126.842 107.578C127.504 107.578 127.799 107.519 128.212 107.519C128.449 107.519 128.661 107.614 128.661 107.732C128.661 107.885 128.46 108.027 128.236 108.086C127.669 108.216 127.705 108.499 127.846 108.807C128 109.22 128.862 110.72 129.488 111.83C129.524 111.89 129.665 111.866 129.689 111.83C129.783 111.653 131.118 109.35 131.402 108.712C131.603 108.322 131.543 108.228 130.976 108.051C130.622 107.956 130.563 107.862 130.563 107.743C130.563 107.625 130.74 107.531 131.036 107.531C131.52 107.531 131.567 107.59 132.122 107.59C132.429 107.59 133.552 107.507 133.658 107.507C133.835 107.507 134.13 107.566 134.13 107.708C134.13 107.921 133.823 108.039 133.658 108.062C132.736 108.216 132.583 108.476 131.981 109.232C131.461 109.87 130.457 111.571 130.067 112.35C129.984 112.504 129.925 112.622 129.913 113.071C129.89 113.496 129.89 114.63 129.937 115.079C129.996 115.551 130.232 115.717 130.87 115.882C131.177 115.965 131.414 116.024 131.414 116.189C131.414 116.331 131.26 116.437 130.906 116.437C130.161 116.437 130.185 116.378 129.441 116.378C128.898 116.378 127.905 116.473 127.197 116.473C126.866 116.473 126.689 116.414 126.689 116.225C126.689 116.142 126.83 116.012 127.078 115.953C128.094 115.74 128.307 115.504 128.331 115.173C128.354 114.807 128.39 113.614 128.39 113.307C128.39 112.835 128.366 112.823 128.248 112.504C128 111.866 126.83 109.858 126.393 109.291C125.85 108.476 125.673 108.24 124.87 108.027C124.574 107.944 124.444 107.838 124.444 107.696C124.456 107.602 124.633 107.484 124.917 107.484Z" fill="#10427A"/>
</svg>
