<svg width="301" height="106" viewBox="0 0 301 106" fill="none" xmlns="http://www.w3.org/2000/svg">
<path fill-rule="evenodd" clip-rule="evenodd" d="M238.112 7.0604H246.154V4.14H218.148V7.0604H226.189V63.4492H218.148V66.368H246.154V63.4492H238.112V7.0604ZM289.085 66.368V63.4492H280.488V6.46863C293.621 5.81591 295.852 8.60319 297.531 20.5269H300.419L299.394 4.14H249.563L248.538 20.5269H251.52C253.196 8.60319 255.426 5.81751 268.563 6.46863V63.4476H259.965V66.3664H289.085V66.368ZM212.814 7.00748V4.08708H189.845L176.342 46.6437L163.305 4.08708H140.463V7.00748H148.499V63.3722L139.82 63.369C131.724 63.5599 131.618 56.6751 131.63 55.2477C131.748 40.0636 128.38 34.574 113.849 32.3384V32.1524C122.512 31.219 133.597 28.7685 133.597 18.2432C133.597 5.29308 121.488 4.08228 111.333 4.08228H81.3076V7.00267H89.3471V63.3915H81.3076V66.3103H109.31V63.3915H101.271V33.6743C106.42 33.453 112.264 34.7921 114.872 37.0277C117.294 39.0773 118.598 45.4441 118.598 53.1773C118.598 62.681 123.532 66.2894 132.943 66.2894L159.921 66.2927V63.3739H152.071V8.00019H152.255L170.786 66.2943H173.954L192.578 8.00019H192.857V63.3739H184.822V66.2927H212.812V63.3739H204.774V7.00748H212.814ZM101.271 30.7555V7.00427H109.376C117.667 7.00427 120.74 9.11318 120.74 19.5471C120.74 27.933 117.294 30.7555 108.909 30.7555H101.271ZM81.5562 81.0277H93.4511V82.1054H90.4329V99.4995C90.4329 102.806 91.2604 104.461 95.321 104.495C98.1596 104.532 99.7409 103.167 100.496 102.123C101.324 101.224 101.324 98.4587 101.324 95.511V83.4365C101.324 82.7165 100.75 82.1054 99.7072 82.1054H98.0907V81.0277H105.675V82.1054H103.514C102.687 82.1054 102.4 82.7165 102.4 83.4365V98.2053C102.4 100.038 102.257 101.908 100.998 103.273C99.6687 104.749 97.5839 105.573 93.4864 105.573C87.5926 105.573 84.3948 103.525 84.3948 97.705V82.1054H81.5546V81.0277H81.5562ZM128.127 105.571H127.301L111.92 84.1903V102.624C111.92 103.523 112.423 103.883 113.321 103.955H115.369V105.032H107.463V103.955H109.188C110.411 103.883 110.483 103.127 110.483 102.085V84.3314C110.483 82.5705 110.807 82.1038 108.65 82.1038H107.463V81.0261H116.952L127.051 95.2561V83.1463C127.051 82.4262 125.577 82.1038 124.679 82.1038H123.673V81.0261H131.257V82.1038H129.748C128.706 82.1038 128.13 82.4262 128.13 83.1463V105.571H128.127ZM133.297 105.032V103.956H135.956V82.1054H133.297V81.0277H145.013V82.1054H141.994V103.956H145.013V105.032H133.297ZM146.195 81.0277H157.337V82.1054H154.568L160.569 96.8774L165.42 82.8977C165.529 82.609 165.386 82.1054 163.372 82.1054H162.15V81.0277H169.662V82.1054H168.19C167.325 82.1054 166.968 82.322 165.603 86.2399L158.882 105.573H157.767L148.244 82.1054H146.196V81.0277H146.195ZM171.17 105.032V103.955H174.045V82.1038H171.492V81.0261H191.154L191.367 87.494H190.145C188.636 83.4349 187.056 82.1038 183.461 82.1038H180.085V92.1304C183.605 92.1304 184.36 91.088 185.077 87.7827H186.264V97.9872H185.077C184.577 94.5392 183.605 93.3893 180.085 93.3893V103.955H183.605C189.175 103.955 190.183 101.329 191.154 97.1645H192.265L192.049 105.032H171.17ZM194.781 105.032V103.955H197.585V82.1038H194.709V81.0261H208.976C212.568 81.0261 216.343 82.6427 216.343 86.8493C216.343 90.8025 211.348 91.9524 208.328 92.2747V92.3469C213.324 93.2803 215.407 95.2561 215.407 98.7089C215.407 101.69 215.551 102.984 216.055 103.523C216.305 103.777 217.025 104.065 218.824 103.668L219.038 104.423C217.888 105.034 216.129 105.538 214.834 105.538C210.45 105.538 208.977 103.562 208.867 98.0257C208.795 93.7502 208.039 92.8136 205.164 92.8136H203.619V103.955H206.601V105.032H194.781ZM203.621 91.63H205.13C208.761 91.63 209.8 91.019 209.8 88.5011V85.0146C209.8 83.2922 210.376 82.1054 206.208 82.1054H203.621V91.63ZM234.846 81.0277H235.96V87.3898H234.81C234.268 84.4421 231.718 81.5666 228.593 81.5666C226.617 81.5666 223.847 82.7165 223.847 85.0868C223.847 87.2069 225.356 87.7843 227.117 88.1788C228.95 88.5733 231.969 89.2934 233.624 90.0118C235.779 90.9484 237.542 92.8521 237.542 97.0218C237.542 101.225 234.988 105.573 229.132 105.573C227.262 105.573 225.68 105.034 224.17 103.884L222.337 105.251H221.042V98.2775H222.337C223.307 101.584 225.679 104.495 229.31 104.495C233.3 104.495 235.022 101.942 235.022 99.6808C235.022 96.5888 231.539 96.3386 228.088 95.4389C224.601 94.5392 221.115 93.1022 221.115 87.6736C221.115 83.5793 224.566 80.4889 228.663 80.4889C230.386 80.4889 232.039 81.1721 233.515 82.0702L234.846 81.0277ZM240.231 105.032V103.956H242.89V82.1054H240.231V81.0277H251.948V82.1054H248.928V103.956H251.948V105.032H240.231ZM253.956 81.0277H275.807L276.167 88.8267H275.197C274.01 84.4758 272.825 81.7446 267.902 82.1054V103.956H270.849V105.034H258.916V103.956H261.864V82.1054C256.94 81.7446 255.755 84.4774 254.568 88.8267H253.598L253.956 81.0277ZM276.884 81.0277H288.348V82.1054H285.65L291.401 91.8433L295.965 83.0388C296.254 82.5 295.715 82.1054 294.96 82.1054H292.84V81.0277H300.424V82.1054H299.093C298.087 82.1054 297.693 82.2835 296.756 84.0812L292.014 93.3187V103.956H295.178V105.034H282.959V103.956H285.976V94.2184L279.075 82.1054H276.886V81.0277H276.884Z" fill="black"/>
<path fill-rule="evenodd" clip-rule="evenodd" d="M36.0017 0.989258H26.8957V8.3552H11.7661V23.7542H0.382812V46.5192H11.8992V61.5173H26.8973V69.1511L34.9112 69.135C53.6588 69.135 70.15 54.0182 70.15 35.1375C70.1484 16.3899 54.7493 0.989258 36.0017 0.989258Z" fill="#CF4044"/>
</svg>
